<?xml version="1.0" encoding="utf-8"?>
<!-- Generator: Adobe Illustrator 28.2.0, SVG Export Plug-In . SVG Version: 6.00 Build 0)  -->
<svg version="1.1" id="Camada_1" xmlns="http://www.w3.org/2000/svg" xmlns:xlink="http://www.w3.org/1999/xlink" x="0px" y="0px"
	 viewBox="0 0 1920 1080" style="enable-background:new 0 0 1920 1080;" xml:space="preserve">
<style type="text/css">
	.st0{fill:#070707;}
	.st1{opacity:0.3;fill:none;stroke:#50D594;stroke-miterlimit:10;}
	.st2{opacity:0.3;}
	.st3{fill:none;stroke:#50D594;stroke-miterlimit:10;}
</style>
<rect class="st0" width="1920" height="1080"/>
<path class="st1" d="M-107.5,924.9c0,0,397-63.4,816-3.4s1383-74.9,1383-74.9"/>
<g class="st2">
	<path class="st3" d="M175.3,385c2.5-0.7,3.8,1.8,5.8,2.7c2.6,0,5-0.8,7.4-1.4c4.8-1.3,9.9-1.6,14.9-1.2
		c14.7,1.6,28.8,6.7,40.5,14.7c6.8,5.8,14,11.5,19.2,18.6c11.6,0.8,23.2-0.1,34.8,0.5c5.8,0.4,11.9-0.2,17.5,1.3
		c-1.9,6.2-7.8,10.7-14.3,13.1c-6.5,2.5-13.4,4.3-20.3,6.1c-7.1,1.3-14.2,2.3-21.3,3.3c-2.5,0.3-5,0.5-7.5,0.7
		c-0.5,1.4-0.9,2.8-1.4,4.1c0.1-1.6,0.2-3.2,0.3-4.8c-3.8,0-7.5,0.3-11.2,0.8c-6.3,0.6-12.6-0.6-18.9,0.1
		c-11.2,2.8-22.4,5.8-33.2,9.8c-17.6,5.4-34.4,12.2-51.8,18.1c-0.1,0.6-0.3,1.9-0.4,2.5c-1.4-4.6-3.6-9-5-13.6
		c-2.6-8.1-2.7-16.5-1.9-24.8c1.2-8.2,4.2-16.3,9.9-23c7.1-7.7,15.9-14.1,25.8-18.9c3.2-1.2,4.1-4.3,6.1-6.5
		C171.7,386,173.6,385.5,175.3,385z"/>
	<path class="st3" d="M175.1,521.5c1.3-3.6,2.5-7.6,6.9-9.1c6.2,3.1,13.1,4.5,19.8,6.4c5.4,1.4,10.8,3.2,16.1,5
		c7.4,1.5,11.7,7.2,15.8,12.3c1.6,3.1,1.3,6.7,3.5,9.6c4.7,6.4,8,13.6,10.1,21c3.2,11.2,11.1,20.8,14.2,32c0.6,3.2-3.9,4.3-6.3,5.7
		c-0.4-1-0.8-2.1-1.1-3.1c-4.2,0.2-8.3,0.8-12.2,2c-7,2-14.2,3.8-20.4,7.5c-1.8,0.6-1.2,2.4-1,3.7c0.9,3.7,2.9,6.9,4.7,10.3
		c3.5,6.2,6.7,12.6,11.5,18c6,6.8,12,13.6,18.3,20.2c0.7,8.5,1.9,17,0.9,25.6c-2.6,0.2-5.2,0.4-7.9,0.4c-9.5-0.7-19,0.1-28.4,1
		c-17.5,2.2-34.9,7.4-52.8,5.5c-4-0.4-8-1-11.8-2c-4.8-1.5-9.9-2.5-14.2-4.8c-0.5-1.6-0.5-3.2-0.4-4.8c0.7-12.1,1.7-24.5,5.7-36.2
		c1-3.1,2.4-6.1,3.1-9.2c0.6-2.9-0.3-5.9-1-8.7c0.9-8.2,0.7-16.5,0.9-24.8c0.5-3-2.4-4.9-4.9-6.3c-4-2.1-7.9-4.3-11.7-6.7
		c1-3.1,2.2-6.3,3.9-9.2c4.1-6.9,8.4-13.7,13-20.2c3.4-4.9,7.7-9.2,10.2-14.6c1.7-3.7,3.1-7.4,5.3-10.9
		C168,531.5,173,527.3,175.1,521.5z"/>
	<path class="st3" d="M65.7,826.2c5.4-2,13.2-1.9,16.9,2.7c0.1,5-0.6,10.1,0.9,14.9c1.3,4.5,4.9,8.4,9.6,10.6
		c3.8,1.9,8.2,2,12.3,2.7c2.7,0.5,5.6,2.4,5.4,5.1c0.3,6.1-1.8,12.1-0.8,18.2c0.5,5.5,3.3,10.5,5,15.7c-0.2,1.8-0.6,3.8-1,5.6
		c-0.9,0.7-1.9,1.4-2.8,2.2c-5.4-3-8.9-7.9-12.9-12.1c-16.1-17.6-32-35.4-47.1-53.8c-0.5-1-2.4-2.4-0.9-3.4
		C54.9,831.1,60.3,828.4,65.7,826.2z"/>
	<path class="st3" d="M372.9,832.6c-8.2,7.1-17.1,13.8-26.4,19.8c-5.3,3.8-10.5,7.7-16.2,11.2c-8.4,5.6-16.6,11.4-25.2,16.7
		c-4,2.5-7.7,5.4-12.1,7.1c-4.8-7-10.6-14.2-10.4-22.8c-0.2-3.2,1.9-6.6,5.5-7.4c5.2-0.6,10.6-0.5,15.8-1.8
		c5.7-1.6,10.7-5.3,13.2-10.1c1.4-2.7,0.8-5.7,0.3-8.6l-0.1-0.9c4-3.8,10.2-2.6,15.4-2.2c9.7,1,19.1-1.6,28.3-3.9
		C365,828.9,370.9,828.5,372.9,832.6z"/>
	<g>
		<path class="st3" d="M220.8,443.5c6.3-0.8,12.6,0.5,18.9-0.1c-2.5,3.9-6.4,6.9-8,11.2c2.4-1.6,4.5-3.5,7.1-4.7
			c3.5-1,7.4-0.6,11-1.4c0.2-0.3,0.6-0.8,0.8-1.1c0.5-1.4,0.9-2.8,1.4-4.1c2.5-0.2,5-0.4,7.5-0.7c-0.4,7.1-1.9,14.1-1.7,21.2
			c-0.1,5.1,6.5,6.7,10.5,8.6c-0.8,2.5-2.1,4.7-3.6,6.9c-1.7,2.3-1.5,5.1-1.9,7.6c-0.4,5.2-4.2,9.4-6.5,14.1
			c-2.3,4-4.3,8.9-9.4,10.7c-8.6,3-18,1.4-27,2.1c-0.8,3.3-1.6,6.6-2.3,9.9c-5.3-1.8-10.7-3.6-16.1-5c-6.7-1.8-13.7-3.2-19.8-6.4
			l-0.6-0.2c1.5,0.2,2.9,0.3,4.4,0.5c3.6-6.9,5.6-15,12.1-20.3c-4.1,0-8.5,0-11.9-2.3c-4.6-3.1-8.2-7.6-9.3-12.7
			c-1.1-4.5,0.6-9.4,4.4-12.5c3-2.4,7.7-1.7,10.9,0c5.2,2.9,6.5,8.8,11.1,12.2c0.7-4.2,0.3-8.7,2-12.7c3-3.7,8.2-5.5,11.3-9.2
			C219.4,451.9,220.3,447.7,220.8,443.5z M233.9,464.1l0.7-0.7c0.8,3.5,0.9,7.5,4,10.1c1.9,1.8,4.6,2.4,7.2,3
			c-0.1-0.4-0.4-1.1-0.5-1.5c1.7-0.5,4.2-1.2,4.3-3.2c0.4-3.9,0.1-8-0.9-11.9c-0.7-2.2-1.9-5.4-5.3-4.7
			C238.6,456.1,235,459.9,233.9,464.1z"/>
	</g>
	<path class="st3" d="M144.2,598.4c2.5,1.4,5.4,3.3,4.9,6.3c-0.2,8.2-0.1,16.5-0.9,24.8c-2.4-3.4-4.7-6.9-5.6-10.9
		C140.6,611.8,143,605,144.2,598.4z"/>
	<path class="st3" d="M241.9,603.3c3.9-1.2,8.1-1.8,12.2-2c0.4,1,0.8,2.1,1.1,3.1c1.9,5.2,5.2,9.9,7.7,14.8
		c3.4,6.5,7.2,13,10.9,19.4c4.5,7.9,8.6,15.9,13.2,23.8c6.1,10.5,19.7,16.9,22.9,28.9c1.5,5.5,3.5,12-1.1,16.8
		c-6.7,4.1-15.2,3.1-22.9,3.8c-0.9-1.2-1.7-2.5-2.4-3.8c-1.2-0.2-2.5-0.4-3.8-0.6c-0.5-3.7-0.3-7.6-2.9-10.7
		c-2.9-3.6-6.5-6.8-8.1-11c-1.8-4.2-1.4-9-3.8-13c-2.8-3.8-6.9-6.6-10.1-10.1c-6.3-6.6-12.2-13.4-18.3-20.2c-4.8-5.5-8-11.9-11.5-18
		c-1.8-3.4-3.8-6.6-4.7-10.3c-0.2-1.3-0.7-3,1-3.7C227.6,607.1,234.9,605.3,241.9,603.3z"/>
	<path class="st3" d="M93.9,817.6c8.7,6.9,17.3,14.1,25.5,21.5c-4.3,6.2-10.7,11.2-13.9,17.9c-4.2-0.6-8.6-0.7-12.3-2.7
		c-4.7-2.2-8.3-6.1-9.6-10.6c-1.5-4.8-0.8-9.9-0.9-14.9C87.4,826,90.7,821.8,93.9,817.6z"/>
	<path class="st3" d="M278.1,840.9c9.1-4.8,16.9-11.3,25.5-16.8c3.5,5.1,8,9.6,13.7,12.8c0.4,2.8,1.1,5.9-0.3,8.6
		c-2.5,4.8-7.5,8.5-13.2,10.1c-5.1,1.4-10.5,1.2-15.8,1.8C285.3,851.6,281.1,846.5,278.1,840.9z"/>
	<path class="st3" d="M239.8,443.4c3.7-0.5,7.4-0.8,11.2-0.8c-0.1,1.6-0.1,3.2-0.3,4.8c-0.2,0.3-0.6,0.8-0.8,1.1
		c-3.6,0.8-7.4,0.3-11,1.4c-2.7,1.2-4.8,3.1-7.1,4.7C233.4,450.3,237.3,447.3,239.8,443.4z"/>
	<path class="st3" d="M187.6,453.3c10.8-4,22-7,33.2-9.8c-0.5,4.1-1.5,8.3-4.5,11.6c-3.1,3.7-8.2,5.5-11.3,9.2
		c-1.7,4-1.3,8.5-2,12.7c-4.6-3.5-5.8-9.3-11.1-12.2c-3.2-1.8-7.9-2.5-10.9,0c-3.7,3.2-5.4,8.1-4.4,12.5c1.2,5.1,4.7,9.6,9.3,12.7
		c3.4,2.3,7.8,2.3,11.9,2.3c-6.6,5.3-8.4,13.4-12.1,20.3c-1.5-0.1-2.9-0.3-4.4-0.5c-5.9-1.9-12.2-2.7-18-4.8
		c-14.9-5.8-27.6-18.5-28-33.4c0.1-0.6,0.3-1.9,0.4-2.5C153.2,465.5,170.1,458.8,187.6,453.3z"/>
	<path class="st3" d="M233.9,464.1c1-4.1,4.7-8,9.5-8.8c3.3-0.7,4.6,2.5,5.3,4.7c1,3.8,1.3,7.9,0.9,11.9c-0.1,1.9-2.5,2.6-4.3,3.2
		c-2.8-5.7-3.3-11.9-3.3-18c-2.7,1.9-5.2,4.1-7.5,6.4L233.9,464.1z"/>
	<g>
		<path class="st3" d="M219.5,689.9c9.4-1,18.9-1.7,28.4-1c-0.9,4.5-2.8,8.7-3.4,13.2c0.4,4.3,3.3,7.9,5,11.8
			c4.6,9.9,9.5,19.6,13.8,29.5c2.9,6.5,3.6,13.6,5.8,20.3c1.9,5.9,6.2,10.8,9.6,15.9c4.3,6.5,9.2,12.6,13.1,19.3
			c1.5,2.3,2.8,5.4,6.1,6.1c3.3,0.8,4.9,3.7,6.6,6c2,2.8,4,5.8,5.6,8.9c-2.3,1.3-4.5,2.7-6.7,4.1c-8.6,5.5-16.3,12-25.5,16.8
			c-2.7,1.4-5.4,2.7-8.1,3.9c-3.1-3.3-6.2-6.7-9.1-10.2c-1.9-2.1-1.2-5.4-3.6-7.3c-10.6-10.2-22.1-19.8-30.8-31.3
			c-3.9-5-5-11.4-9.4-16.1c-4.5-4.9-7.9-10.4-11.1-16c-4.6,6.4-8.3,13.3-13.2,19.6c-5,6.5-13.1,10.2-19.8,15.2
			c-7.4,5-12.7,11.8-18.9,17.8c-4,3.8-7.7,8-11.8,11.7c-0.6,0.5-1.2,1-1.8,1.6c0.4,1.3,0.8,2.6,1.2,3.9c-4.5,3.8-9.1,7.5-13.3,11.5
			c-3.5-1.5-6.4-3.8-9-6.2c-8.2-7.4-16.8-14.5-25.5-21.5c-1.7-1.4-3.3-2.8-4.8-4.4c4-4.3,8.2-8.4,12.9-12.1c3.3-2.6,5.3-6.2,7.6-9.5
			c4.5-6.5,9.8-12.5,16.2-17.5c4.3-3.6,9.2-6.4,13.5-9.9c2.7-2,3.4-5.2,4.2-8c3.8-14.8,10.1-28.9,17.8-42.4c1.4-2.1-0.2-4.3-1-6.2
			c-2.5-4.5-4.3-9.3-5.3-14.3c3.8,1,7.8,1.6,11.8,2C184.6,697.3,202,692,219.5,689.9z"/>
	</g>
</g>
</svg>
