<?xml version="1.0" encoding="UTF-8" ?>
<!DOCTYPE svg PUBLIC "-//W3C//DTD SVG 1.1//EN" "http://www.w3.org/Graphics/SVG/1.1/DTD/svg11.dtd">
<svg width="696pt" height="696pt" viewBox="0 0 696 696" version="1.1" xmlns="http://www.w3.org/2000/svg">
<g id="#fefbeeff">
<path fill="#fefbee" opacity="1.00" d=" M 389.23 150.52 C 391.90 148.40 393.88 145.49 396.74 143.63 C 396.53 150.44 397.25 157.30 399.96 163.62 C 400.07 164.00 400.28 164.76 400.39 165.14 C 397.74 164.14 394.68 163.50 392.80 161.19 C 390.36 158.18 390.16 154.13 389.23 150.52 Z" />
</g>
<g id="#a0d064ff">
<path fill="#a0d064" opacity="1.00" d=" M 327.33 66.22 C 328.90 65.06 330.85 64.36 332.81 64.29 C 334.97 65.56 337.11 67.97 339.85 67.01 C 345.49 65.64 351.14 63.82 357.03 64.36 C 372.03 65.52 386.58 71.42 398.46 80.59 C 405.20 86.94 412.13 93.27 417.25 101.07 C 434.29 101.96 451.49 100.45 468.44 102.88 C 466.66 107.79 463.56 112.29 458.98 114.96 C 451.48 119.44 442.90 121.66 434.59 124.08 C 427.71 125.56 420.77 126.70 413.81 127.68 C 411.39 127.98 408.96 128.20 406.54 128.49 C 405.99 129.95 405.47 131.43 404.91 132.89 C 405.14 131.12 405.28 129.34 405.48 127.57 C 401.77 127.81 398.08 128.24 394.38 128.56 C 388.27 129.02 382.13 128.13 376.03 128.77 C 364.73 131.69 353.63 135.40 342.81 139.76 C 325.86 145.63 309.57 153.22 292.72 159.38 C 292.73 160.08 292.74 161.49 292.74 162.19 C 291.08 156.32 288.54 150.72 287.21 144.76 C 285.35 136.62 285.26 128.15 286.06 119.87 C 287.17 111.08 289.98 102.38 295.24 95.17 C 301.97 86.56 310.62 79.54 320.14 74.22 C 323.58 72.60 324.84 68.82 327.33 66.22 Z" />
<path fill="#a0d064" opacity="1.00" d=" M 329.56 218.59 C 332.14 213.69 332.66 207.27 338.05 204.38 C 342.24 206.66 346.69 208.44 351.29 209.71 C 358.70 211.76 365.97 214.25 373.16 216.95 C 378.85 218.60 383.20 222.79 386.48 227.56 C 389.50 231.22 389.66 236.18 391.65 240.34 C 393.14 243.43 395.08 246.27 396.57 249.36 C 399.24 254.80 400.73 260.69 402.48 266.46 C 405.72 277.59 412.54 287.33 415.47 298.57 C 416.94 302.37 412.02 303.94 409.64 305.67 C 409.24 304.60 408.73 303.61 408.10 302.68 C 403.60 301.81 399.15 303.69 394.87 304.87 C 388.62 307.05 382.05 308.83 376.54 312.63 C 374.89 313.33 375.41 315.20 375.60 316.60 C 376.36 320.36 378.15 323.81 379.80 327.26 C 383.40 334.48 386.74 341.94 391.79 348.31 C 397.52 355.56 403.21 362.85 409.18 369.91 C 409.92 379.31 410.81 388.74 410.12 398.18 C 407.55 398.31 404.99 398.40 402.43 398.40 C 391.98 397.91 381.50 398.60 371.18 400.19 C 360.10 402.07 349.16 404.81 337.96 405.85 C 329.14 406.63 320.21 405.76 311.68 403.44 C 307.03 401.89 302.10 400.77 297.97 398.05 C 297.18 395.46 297.45 392.70 297.55 390.04 C 298.31 378.13 299.20 366.10 302.57 354.58 C 303.60 350.94 305.03 347.42 305.78 343.71 C 306.51 340.23 305.74 336.69 305.08 333.27 C 305.50 323.88 306.14 314.46 305.83 305.06 C 305.88 302.16 303.25 300.51 301.18 299.03 C 297.33 296.57 293.42 294.24 289.64 291.68 C 291.02 287.55 292.59 283.49 294.63 279.64 C 299.82 270.03 305.15 260.46 311.54 251.58 C 315.63 246.09 317.52 239.46 320.36 233.33 C 322.77 228.02 326.84 223.72 329.56 218.59 Z" />
<path fill="#a0d064" opacity="1.00" d=" M 224.68 549.63 C 229.95 547.48 237.61 547.43 241.12 552.59 C 241.35 558.28 240.60 564.14 242.32 569.67 C 244.09 575.53 248.99 580.32 254.89 581.95 C 257.68 582.71 260.56 583.04 263.40 583.59 C 265.75 584.00 268.37 585.61 268.59 588.21 C 269.19 595.17 266.98 602.08 267.95 609.04 C 268.42 615.08 271.18 620.54 272.81 626.29 C 273.09 629.75 271.28 632.73 269.12 635.27 C 261.15 629.02 255.91 620.18 249.29 612.66 C 237.45 597.79 225.63 582.90 214.35 567.61 C 212.51 564.91 209.87 562.50 209.12 559.24 C 213.66 555.15 219.14 552.16 224.68 549.63 Z" />
<path fill="#a0d064" opacity="1.00" d=" M 512.58 553.66 C 516.17 552.84 520.98 552.06 523.58 555.37 C 524.37 556.88 522.83 557.92 521.97 558.96 C 511.49 568.95 499.77 577.49 488.52 586.57 C 474.39 596.66 461.18 608.09 446.35 617.15 C 441.69 609.42 435.92 601.49 436.19 592.02 C 435.99 588.54 437.94 584.73 441.56 583.93 C 446.41 583.21 451.38 583.27 456.16 582.03 C 461.80 580.53 466.82 576.63 469.47 571.40 C 471.07 568.22 470.49 564.56 470.07 561.18 L 469.95 560.15 C 474.69 555.81 481.27 557.77 486.97 558.06 C 495.75 558.75 504.22 555.93 512.58 553.66 Z" />
</g>
<g id="#f5eac7ff">
<path fill="#f5eac7" opacity="1.00" d=" M 250.67 133.71 C 262.14 128.36 273.47 122.16 286.06 119.87 C 285.26 128.15 285.35 136.62 287.21 144.76 C 288.54 150.72 291.08 156.32 292.74 162.19 C 293.03 176.87 303.02 189.61 315.38 196.64 C 322.15 200.67 330.03 201.92 337.48 204.12 L 338.05 204.38 C 332.66 207.27 332.14 213.69 329.56 218.59 C 326.84 223.72 322.77 228.02 320.36 233.33 C 317.52 239.46 315.63 246.09 311.54 251.58 C 305.15 260.46 299.82 270.03 294.63 279.64 C 292.59 283.49 291.02 287.55 289.64 291.68 C 293.42 294.24 297.33 296.57 301.18 299.03 C 299.93 306.35 297.88 313.87 299.56 321.30 C 300.45 325.67 302.84 329.49 305.08 333.27 C 305.74 336.69 306.51 340.23 305.78 343.71 C 305.03 347.42 303.60 350.94 302.57 354.58 C 299.20 366.10 298.31 378.13 297.55 390.04 C 297.45 392.70 297.18 395.46 297.97 398.05 C 302.10 400.77 307.03 401.89 311.68 403.44 C 312.80 409.95 315.56 415.95 318.06 422.00 C 318.97 423.77 318.15 425.66 317.37 427.31 C 310.12 441.71 304.22 456.87 300.63 472.62 C 299.79 475.99 298.82 479.64 295.96 481.90 C 290.72 486.35 284.98 490.23 280.22 495.22 C 273.08 502.05 268.27 510.74 262.87 518.89 C 257.86 524.51 252.02 529.38 247.42 535.39 C 238.86 531.01 231.11 525.28 223.22 519.83 C 209.15 509.80 195.86 498.53 184.62 485.37 C 173.09 473.55 164.10 459.56 155.49 445.56 C 143.09 423.42 134.46 399.21 129.82 374.27 C 127.87 361.27 126.08 348.16 126.63 334.98 C 126.18 293.04 138.81 251.39 160.83 215.84 C 170.18 201.22 181.32 187.83 193.33 175.33 C 199.69 169.32 206.48 163.79 213.09 158.05 C 218.84 152.98 225.43 149.02 231.80 144.80 C 237.91 140.82 244.04 136.79 250.67 133.71 Z" />
<path fill="#f5eac7" opacity="1.00" d=" M 413.81 127.68 C 420.77 126.70 427.71 125.56 434.59 124.08 C 445.70 130.63 457.72 135.50 468.70 142.29 C 479.47 148.93 489.70 156.43 499.16 164.83 C 507.75 170.84 513.88 179.44 521.26 186.74 C 525.59 191.16 528.84 196.47 532.84 201.16 C 539.40 208.93 544.20 217.94 549.38 226.64 C 556.73 238.83 561.61 252.27 566.39 265.62 C 572.59 283.42 575.76 302.15 576.88 320.93 C 577.99 345.53 576.38 370.52 569.29 394.22 C 566.82 404.46 562.74 414.18 558.95 423.98 C 555.19 433.42 549.68 442.02 544.98 451.00 C 541.01 458.70 535.24 465.21 530.22 472.21 C 525.49 478.73 519.97 484.62 514.66 490.66 C 510.93 494.94 506.34 498.33 502.29 502.28 C 494.78 509.91 485.81 515.84 477.38 522.37 C 471.47 526.99 464.63 530.13 457.76 533.02 C 456.14 530.04 453.78 527.50 450.70 526.01 C 447.79 524.68 446.41 521.65 444.93 519.03 C 441.33 512.13 436.83 505.77 432.89 499.08 C 429.26 492.94 424.75 487.14 422.90 480.14 C 420.83 472.49 420.02 464.48 416.95 457.11 C 412.47 446.00 407.79 434.95 403.02 423.96 C 401.28 419.70 398.29 415.32 399.50 410.51 C 400.36 406.45 401.55 402.46 402.43 398.40 C 404.99 398.40 407.55 398.31 410.12 398.18 C 410.81 388.74 409.92 379.31 409.18 369.91 C 412.34 373.72 416.31 376.86 418.94 381.09 C 421.45 385.94 421.12 391.68 423.31 396.66 C 425.09 400.92 428.53 404.13 430.91 408.03 C 432.96 411.40 432.95 415.50 433.49 419.30 C 434.55 419.47 435.62 419.67 436.68 419.89 C 438.06 421.57 439.34 424.00 441.89 423.78 C 447.79 423.77 453.87 423.41 459.40 421.18 C 463.56 419.40 464.84 414.46 464.49 410.33 C 463.91 403.77 462.38 397.01 458.46 391.60 C 454.44 386.00 449.33 381.31 444.97 376.01 C 440.41 370.46 437.78 363.71 434.59 357.36 C 426.45 340.05 416.89 323.38 409.64 305.67 C 412.02 303.94 416.94 302.37 415.47 298.57 C 412.54 287.33 405.72 277.59 402.48 266.46 C 400.73 260.69 399.24 254.80 396.57 249.36 C 395.08 246.27 393.14 243.43 391.65 240.34 C 389.66 236.18 389.50 231.22 386.48 227.56 C 383.20 222.79 378.85 218.60 373.16 216.95 C 373.93 213.31 374.67 209.66 375.40 206.02 C 383.67 205.54 392.20 206.68 400.25 204.26 C 404.10 203.22 406.85 200.09 408.57 196.63 C 410.82 192.19 413.10 187.76 415.24 183.27 C 417.05 179.50 417.00 175.24 417.96 171.23 C 418.92 167.47 420.91 164.11 422.56 160.63 C 419.53 159.01 416.22 157.75 413.71 155.33 C 411.91 153.38 412.17 150.50 412.11 148.05 C 412.37 141.24 413.40 134.48 413.81 127.68 Z" />
<path fill="#f5eac7" opacity="1.00" d=" M 348.60 502.61 C 353.38 495.71 357.04 488.13 361.47 481.02 C 364.43 487.01 367.67 492.90 371.85 498.14 C 374.51 501.45 376.32 505.31 377.85 509.24 C 380.55 516.27 385.45 522.09 390.22 527.78 C 396.96 535.88 404.61 543.17 411.68 550.97 C 407.65 555.41 401.36 555.72 395.86 556.80 C 375.48 560.48 354.59 562.06 333.95 559.93 C 323.38 559.15 312.72 558.30 302.45 555.52 C 300.54 555.27 300.26 553.11 299.20 551.87 C 303.15 547.93 306.61 543.54 310.36 539.42 C 316.77 532.48 322.26 524.60 329.87 518.87 C 336.19 513.55 343.81 509.54 348.60 502.61 Z" />
<path fill="#f5eac7" opacity="1.00" d=" M 301.04 624.84 C 324.34 623.58 347.68 624.15 371.00 624.04 C 380.58 624.14 390.17 623.81 399.74 624.42 C 413.46 625.38 427.27 624.39 440.96 625.96 C 444.67 626.27 448.51 627.00 452.19 626.00 C 453.75 625.48 455.29 624.88 456.80 624.21 C 457.31 625.01 457.83 625.81 458.35 626.62 C 474.02 628.41 489.89 628.50 505.44 631.39 C 509.28 631.92 513.11 633.15 515.83 636.07 C 513.10 637.94 510.07 639.42 506.77 639.89 C 487.41 643.39 467.70 644.32 448.09 645.31 C 438.28 646.26 428.42 645.73 418.62 646.55 C 409.74 647.29 400.83 646.71 391.95 647.28 C 378.98 648.14 365.98 647.83 353.00 647.92 C 339.34 647.77 325.66 648.21 312.02 647.30 C 302.60 646.73 293.15 647.18 283.75 646.40 C 256.65 645.21 229.44 644.60 202.58 640.50 C 197.96 639.65 192.68 639.36 189.17 635.85 C 190.18 632.87 194.05 632.40 196.70 631.64 C 210.67 629.07 224.88 628.15 239.03 627.25 C 241.90 627.23 244.53 626.07 247.01 624.72 C 247.68 625.37 248.38 625.99 249.05 626.65 C 249.47 627.05 249.86 627.49 250.21 627.97 C 253.18 632.73 256.10 638.51 262.17 639.69 C 264.96 639.09 267.08 637.12 269.12 635.27 C 271.28 632.73 273.09 629.75 272.81 626.29 C 282.07 624.19 291.64 625.37 301.04 624.84 Z" />
</g>
<g id="#ffbd92ff">
<path fill="#ffbd92" opacity="1.00" d=" M 376.03 128.77 C 382.13 128.13 388.27 129.02 394.38 128.56 C 391.67 132.60 388.71 136.48 386.47 140.82 C 388.82 139.10 390.97 137.06 393.61 135.79 C 397.06 134.61 400.79 134.98 404.33 134.19 C 404.47 133.87 404.77 133.22 404.91 132.89 C 405.47 131.43 405.99 129.95 406.54 128.49 C 408.96 128.20 411.39 127.98 413.81 127.68 C 413.40 134.48 412.37 141.24 412.11 148.05 C 412.17 150.50 411.91 153.38 413.71 155.33 C 416.22 157.75 419.53 159.01 422.56 160.63 C 420.91 164.11 418.92 167.47 417.96 171.23 C 417.00 175.24 417.05 179.50 415.24 183.27 C 413.10 187.76 410.82 192.19 408.57 196.63 C 406.85 200.09 404.10 203.22 400.25 204.26 C 392.20 206.68 383.67 205.54 375.40 206.02 C 374.67 209.66 373.93 213.31 373.16 216.95 C 365.97 214.25 358.70 211.76 351.29 209.71 C 346.69 208.44 342.24 206.66 338.05 204.38 L 337.48 204.12 C 338.91 204.48 340.37 204.74 341.83 204.98 C 345.17 197.25 347.36 188.57 353.53 182.48 C 349.39 182.44 344.85 182.27 341.53 179.45 C 335.28 174.42 330.67 165.66 333.61 157.64 C 335.01 153.56 338.74 149.40 343.48 150.54 C 351.40 151.78 353.73 160.50 358.44 165.76 C 359.22 161.08 358.93 156.15 360.61 151.66 C 363.53 147.56 368.51 145.54 371.55 141.53 C 374.52 137.95 375.34 133.23 376.03 128.77 M 388.73 151.33 L 389.23 150.52 C 390.16 154.13 390.36 158.18 392.80 161.19 C 394.68 163.50 397.74 164.14 400.39 165.14 C 400.28 164.76 400.07 164.00 399.96 163.62 C 401.27 162.37 403.97 162.18 404.00 159.91 C 404.39 155.08 404.18 150.07 402.67 145.43 C 401.96 143.78 401.17 141.38 398.92 141.69 C 393.72 141.74 389.93 146.64 388.73 151.33 Z" />
<path fill="#ffbd92" opacity="1.00" d=" M 301.18 299.03 C 303.25 300.51 305.88 302.16 305.83 305.06 C 306.14 314.46 305.50 323.88 305.08 333.27 C 302.84 329.49 300.45 325.67 299.56 321.30 C 297.88 313.87 299.93 306.35 301.18 299.03 Z" />
<path fill="#ffbd92" opacity="1.00" d=" M 394.87 304.87 C 399.15 303.69 403.60 301.81 408.10 302.68 C 408.73 303.61 409.24 304.60 409.64 305.67 C 416.89 323.38 426.45 340.05 434.59 357.36 C 437.78 363.71 440.41 370.46 444.97 376.01 C 449.33 381.31 454.44 386.00 458.46 391.60 C 462.38 397.01 463.91 403.77 464.49 410.33 C 464.84 414.46 463.56 419.40 459.40 421.18 C 453.87 423.41 447.79 423.77 441.89 423.78 C 439.34 424.00 438.06 421.57 436.68 419.89 C 435.62 419.67 434.55 419.47 433.49 419.30 C 432.95 415.50 432.96 411.40 430.91 408.03 C 428.53 404.13 425.09 400.92 423.31 396.66 C 421.12 391.68 421.45 385.94 418.94 381.09 C 416.31 376.86 412.34 373.72 409.18 369.91 C 403.21 362.85 397.52 355.56 391.79 348.31 C 386.74 341.94 383.40 334.48 379.80 327.26 C 378.15 323.81 376.36 320.36 375.60 316.60 C 375.41 315.20 374.89 313.33 376.54 312.63 C 382.05 308.83 388.62 307.05 394.87 304.87 Z" />
<path fill="#ffbd92" opacity="1.00" d=" M 252.18 540.11 C 260.61 547.85 269.04 555.61 277.06 563.79 C 272.74 570.56 266.65 576.13 263.40 583.59 C 260.56 583.04 257.68 582.71 254.89 581.95 C 248.99 580.32 244.09 575.53 242.32 569.67 C 240.60 564.14 241.35 558.28 241.12 552.59 C 245.75 549.35 249.15 544.79 252.18 540.11 Z" />
<path fill="#ffbd92" opacity="1.00" d=" M 431.82 565.76 C 440.73 560.49 448.29 553.31 456.65 547.27 C 460.08 552.77 464.42 557.85 470.07 561.18 C 470.49 564.56 471.07 568.22 469.47 571.40 C 466.82 576.63 461.80 580.53 456.16 582.03 C 451.38 583.27 446.41 583.21 441.56 583.93 C 438.82 577.61 434.83 571.95 431.82 565.76 Z" />
<path fill="#ffbd92" opacity="1.00" d=" M 499.69 588.70 C 509.83 580.15 520.58 572.20 529.44 562.26 C 528.56 564.86 527.51 567.53 525.32 569.33 C 516.21 577.59 506.50 585.16 496.90 592.83 C 488.60 600.28 479.43 606.65 470.85 613.76 C 466.17 617.24 462.02 621.50 456.80 624.21 C 455.29 624.88 453.75 625.48 452.19 626.00 C 451.96 625.64 451.51 624.92 451.29 624.56 C 454.85 623.28 458.39 621.80 461.34 619.37 C 467.62 614.30 474.21 609.61 480.27 604.27 C 486.51 598.79 493.43 594.15 499.69 588.70 Z" />
<path fill="#ffbd92" opacity="1.00" d=" M 262.17 639.69 C 256.10 638.51 253.18 632.73 250.21 627.97 C 254.57 631.48 258.32 635.64 262.17 639.69 Z" />
</g>
<g id="#57220eff">
<path fill="#57220e" opacity="1.00" d=" M 394.38 128.56 C 398.08 128.24 401.77 127.81 405.48 127.57 C 405.28 129.34 405.14 131.12 404.91 132.89 C 404.77 133.22 404.47 133.87 404.33 134.19 C 400.79 134.98 397.06 134.61 393.61 135.79 C 390.97 137.06 388.82 139.10 386.47 140.82 C 388.71 136.48 391.67 132.60 394.38 128.56 Z" />
<path fill="#57220e" opacity="1.00" d=" M 342.81 139.76 C 353.63 135.40 364.73 131.69 376.03 128.77 C 375.34 133.23 374.52 137.95 371.55 141.53 C 368.51 145.54 363.53 147.56 360.61 151.66 C 358.93 156.15 359.22 161.08 358.44 165.76 C 353.73 160.50 351.40 151.78 343.48 150.54 C 338.74 149.40 335.01 153.56 333.61 157.64 C 330.67 165.66 335.28 174.42 341.53 179.45 C 344.85 182.27 349.39 182.44 353.53 182.48 C 347.36 188.57 345.17 197.25 341.83 204.98 C 340.37 204.74 338.91 204.48 337.48 204.12 C 330.03 201.92 322.15 200.67 315.38 196.64 C 303.02 189.61 293.03 176.87 292.74 162.19 C 292.74 161.49 292.73 160.08 292.72 159.38 C 309.57 153.22 325.86 145.63 342.81 139.76 Z" />
<path fill="#57220e" opacity="1.00" d=" M 388.73 151.33 C 389.93 146.64 393.72 141.74 398.92 141.69 C 401.17 141.38 401.96 143.78 402.67 145.43 C 404.18 150.07 404.39 155.08 404.00 159.91 C 403.97 162.18 401.27 162.37 399.96 163.62 C 397.25 157.30 396.53 150.44 396.74 143.63 C 393.88 145.49 391.90 148.40 389.23 150.52 L 388.73 151.33 Z" />
<path fill="#57220e" opacity="1.00" d=" M 199.76 565.28 C 205.27 572.68 210.87 580.02 216.90 587.02 C 223.56 596.26 231.43 604.53 238.31 613.61 C 241.78 618.04 245.66 622.15 249.05 626.65 C 248.38 625.99 247.68 625.37 247.01 624.72 C 239.27 616.82 233.13 607.54 225.80 599.27 C 221.59 594.42 217.96 589.11 213.63 584.37 C 208.32 578.54 203.56 572.19 199.76 565.28 Z" />
</g>
<g id="#263a50ff">
<path fill="#263a50" opacity="1.00" d=" M 371.18 400.19 C 381.50 398.60 391.98 397.91 402.43 398.40 C 401.55 402.46 400.36 406.45 399.50 410.51 C 398.29 415.32 401.28 419.70 403.02 423.96 C 407.79 434.95 412.47 446.00 416.95 457.11 C 420.02 464.48 420.83 472.49 422.90 480.14 C 424.75 487.14 429.26 492.94 432.89 499.08 C 436.83 505.77 441.33 512.13 444.93 519.03 C 446.41 521.65 447.79 524.68 450.70 526.01 C 453.78 527.50 456.14 530.04 457.76 533.02 C 459.67 536.21 461.57 539.41 463.28 542.72 C 461.05 544.22 458.78 545.64 456.65 547.27 C 448.29 553.31 440.73 560.49 431.82 565.76 C 429.23 567.29 426.57 568.71 423.95 570.18 C 420.26 564.94 414.82 560.55 413.33 554.09 C 412.99 552.95 412.48 551.85 411.68 550.97 C 404.61 543.17 396.96 535.88 390.22 527.78 C 385.45 522.09 380.55 516.27 377.85 509.24 C 376.32 505.31 374.51 501.45 371.85 498.14 C 367.67 492.90 364.43 487.01 361.47 481.02 C 357.04 488.13 353.38 495.71 348.60 502.61 C 343.81 509.54 336.19 513.55 329.87 518.87 C 322.26 524.60 316.77 532.48 310.36 539.42 C 306.61 543.54 303.15 547.93 299.20 551.87 C 298.63 552.42 298.07 552.98 297.50 553.53 C 297.95 554.96 298.42 556.38 298.89 557.81 C 294.35 561.94 289.85 566.13 285.70 570.66 C 282.53 568.76 279.63 566.44 277.06 563.79 C 269.04 555.61 260.61 547.85 252.18 540.11 C 250.51 538.62 248.94 537.02 247.42 535.39 C 252.02 529.38 257.86 524.51 262.87 518.89 C 268.27 510.74 273.08 502.05 280.22 495.22 C 284.98 490.23 290.72 486.35 295.96 481.90 C 298.82 479.64 299.79 475.99 300.63 472.62 C 304.22 456.87 310.12 441.71 317.37 427.31 C 318.15 425.66 318.97 423.77 318.06 422.00 C 315.56 415.95 312.80 409.95 311.68 403.44 C 320.21 405.76 329.14 406.63 337.96 405.85 C 349.16 404.81 360.10 402.07 371.18 400.19 Z" />
</g>
</svg>
