<?xml version="1.0" encoding="utf-8"?>
<!-- Generator: Adobe Illustrator 28.2.0, SVG Export Plug-In . SVG Version: 6.00 Build 0)  -->
<svg version="1.1" id="Camada_1" xmlns="http://www.w3.org/2000/svg" xmlns:xlink="http://www.w3.org/1999/xlink" x="0px" y="0px"
	 viewBox="0 0 500 500" style="enable-background:new 0 0 500 500;" xml:space="preserve">
<style type="text/css">
	.st0{fill:#41525D;}
</style>
<g id="_x23_000101ff">
	<path class="st0" d="M290.65,7.13c11.15,5.27,19.48,15.18,25.26,25.86c1.96,2.94,3.03,6.39,5.11,9.23
		c1.68,1.37,3.15,2.95,4.19,4.86c16.89-4.48,34.51-6.23,51.95-4.88c3.42,0.38,7.65,0.78,9.71,3.93c1.25,1.93-0.3,4.11-1.82,5.31
		c-5.23,4.37-12.17,5.43-18.33,7.92c-9,2.48-18.18,4.29-27.39,5.85c0.98,2.39,3.16,3.93,5.13,5.47c3.2,2.09,7.12,1.13,10.56,0.3
		c2.62-0.46,4.48-2.7,7.15-3.04c2.5,5.3-2.33,9.88-6.43,12.44c2.26,1.72,4.88,2.94,7.02,4.82c2.27,2.04,1.61,6.26-1.21,7.45
		c-5.18,2.66-11.11,1.32-16.51,0.25c2.95,3.23,6.39,6.67,6.75,11.28c-1.06,1.37-2.28,2.92-4.16,3.06c-1.65,0.02-3.28-0.34-4.91-0.56
		c0.74,2.21,2.59,4.06,2.62,6.47c0.26,1.87-1.55,3.45-3.32,3.5c-3.14,0.26-6.36-0.22-9.23-1.55c-5.29-2.49-10.37-5.45-14.96-9.09
		c-0.14,0.75-0.26,1.51-0.37,2.28c-0.37,9.32-5.83,17.9-4.42,27.4c1.37,4.1,6.34,3.88,9.46,5.86c1.57,3.52-1.4,6.99-2.99,10
		c0.27,2.53,1.91,5.15,0.82,7.67c-1.49,2.37-4.21,3.47-6.45,4.98c-1.95,1.41-4.44,0.8-6.67,0.86c0.26,2.74,1.88,4.95,3.87,6.73
		c-5.29,7.12-12.51,13.91-21.67,15.07c-7.23,0.97-14.65,0.29-21.65-1.74c-1.25-0.66-2.15,0.54-2.89,1.32
		c5.26,3.21,10.88,5.88,15.57,9.96c-0.78,6.41,0.68,12.79,0.46,19.17c-0.65-0.02-1.94-0.08-2.59-0.1
		c4.34,8.08,6.84,16.91,9.14,25.73c3.21,8.92,6.68,17.78,8.99,26.99c2.62,9.09,2.72,18.64,3.43,28c0.54,15.67,1.44,31.37,1.19,47.05
		c-5.62,1.03-11.37,0.94-17.06,1.08c7.06,9.75,15.22,18.66,22.25,28.43c7.51,11.92,13.26,24.86,20.82,36.75
		c2.69,4.03,5.42,8.04,7.89,12.2c-1.64,1.85-3.64,3.28-5.67,4.66c-2.65,1.74-4.95,3.94-7.67,5.55c2.21,3.42,4.37,6.88,6.82,10.13
		c1.97-1.49,4.21-2.55,6.47-3.52c6.08-2.6,11.2-7.12,17.61-9.01c4.52-1.61,9.57-2.21,14.27-1.13c3.12,1.82,6.93,3.98,8.02,7.63
		c-1.53,9.17-7.22,16.83-12.53,24.21c-6.53,7.83-13.79,15.05-21.78,21.4c-6.13,5.51-12.92,10.25-20.11,14.27
		c-1.76,0.82-3.6,1.59-5.56,1.71c-1.77-0.34-2.92-1.83-3.99-3.16c-3.13-4.08-7.07-7.67-8.96-12.57c-2.36-4.53-2.73-9.68-3.03-14.67
		c-0.98-4.99-4.04-9.22-6.39-13.65c-3.56,2.13-7.18,4.23-11.05,5.76c-2.24-2.35-2.99-5.59-4.34-8.46
		c-4.39-9.83-8.42-19.82-12.79-29.66c-2.92-6.27-5.22-12.87-8.93-18.75c-4.56,7.83-11.5,13.78-17.81,20.12
		c-9.97,9.1-19.52,18.63-29.22,28c-5.43-3.39-10.11-7.86-14.86-12.1c-3.45,0.78-5.93,4.14-9.01,5.94
		c2.75,5.19,6.12,10.06,8.18,15.59c3.17,7.67,6.42,16.04,4.58,24.46c-0.78,4.04-2.96,8.3-7.02,9.85c-3.48,0.62-7.21-0.42-9.96-2.61
		c-6.99-3.6-12.82-9.02-18.31-14.57c-6.28-6.03-11.47-13.07-16.69-20c-4.19-6.63-9.19-12.87-11.96-20.29c2.13-3.43,5-6.3,7.38-9.54
		c2.71-3.48,6.13-6.4,10.13-8.29c3.21-1.79,6.96-2.06,10.39-3.22c3.3-1.86,6.01-4.69,9.61-6.02c-1.41-3.24-3.4-6.25-4.34-9.68
		c-0.34-1.37,1.33-1.87,2.14-2.55c11.84-6.68,23.44-13.72,34.92-20.98c2.79-1.48,3.4-4.83,3.94-7.64c-0.85-1.61-2.45-2.94-2.48-4.88
		c-0.38-2.3,0.82-4.36,1.71-6.37c-7.58-9.09-13.84-20.13-13.59-32.3c-2.14-0.34-4.31-0.58-6.43-1.05
		c0.27-7.11,3.52-13.58,5.67-20.24c1.69-4.48,2.84-9.14,4.59-13.61c-3.82,3.24-6.82,7.29-10.46,10.71c-1.18,1.36-3.2,2.51-2.9,4.6
		c-0.06,5.97,0.85,12.55-2.66,17.81c-2.28,3.17-10.75,1.33-12.82,4.64c-1.34-0.04-4.31-0.33-5.38-1.44
		c-3.28-2.57-2.13,2.49-0.46-0.96c-4.37,0.74,0.86,1.49-2.37,3.88c-2.81,1.86-6.19-0.04-8.14-2.25c-2.12-2.65-5.96-2.86-8.01-5.6
		c-1.61-2.09-4.08-3.36-5.55-5.58c-1.59-1.92-3.64-4.27-2.69-6.95c0.62-2.42,3.09-3.45,5.13-4.42c5.6-2.43,10.34-6.42,15.94-8.85
		c2.83-1.57,6.19-2.1,8.75-4.12c10.35-14.96,18.96-31.14,30.25-45.43c-2.04-2.51-3.88-5.16-5.59-7.9c3.6-4.2,7.62-8,11.18-12.22
		c3.06-3.59,6.94-6.48,9.46-10.49c3.06-6.01,6.26-12.03,10.56-17.25c-1.61-1.29-4.98-1.93-4.31-4.64
		c1.29-6.01,2.85-11.96,4.48-17.88c4.8-0.61,9.65,0.04,14.48-0.03c-0.53-2.44-1.37-5.1-3.69-6.4c-4.72-2.53-9.2-5.55-14.27-7.38
		c-7.49-2.86-14.5-6.92-20.43-12.36c-9.97-9.55-16.54-22.26-19.7-35.66c-1.67-8.11-4.7-15.97-5.16-24.3
		c-2.01-8.15-2.96-16.58-2.31-24.97c0.68-9.75,4.2-19.38,10.33-27.03c7.85-10.8,19.78-17.49,31.53-23.26
		c-0.15-1.83-0.46-3.64-0.45-5.48c1.04-1.45,2.68-2.23,4.16-3.12c3.97-2.41,8.82-3.56,13.44-2.87c2.29,0.34,3.16,2.83,4.24,4.55
		c5.46-1.66,11.06-2.89,16.73-3.52C263.67,2.8,277.92,1.48,290.65,7.13 M228.71,6.64c-4.7-0.34-9.24,1.25-13.31,3.47
		c0.31,0.85-0.42,2.7,0.97,2.61c4.39-1.26,8.43-3.56,12.95-4.4C229.17,7.9,228.86,7.06,228.71,6.64 M286.36,10.6
		c-7.38-3.17-15.57-2.87-23.42-2.65c-9.25,0.39-18.53,0.94-27.64,2.69c2.41,3.35,5.95,5.64,8.35,9.01
		c6.17,8.06,10.09,17.55,12.99,27.21c1.2,3.92,2.56,7.81,3.14,11.88c17.07-6.04,34.15-12.21,51.83-16.26
		c1.22-0.42,2.88-0.14,3.68-1.33c-3.95-6.63-7.98-13.31-13.18-19.05C297.49,17.52,292.63,12.79,286.36,10.6 M232.18,12.3
		c-3.08-0.34-5.83,1.45-8.7,2.28c-10.25,3.15-19.53,8.73-28.23,14.89c-7.12,6.03-13.99,13.03-17.12,22.02
		c-3.1,7.89-2.87,16.59-2.54,24.92c0.71,4.44,1.25,8.92,2.08,13.35c3.16-0.92,6.11-2.5,9.36-3.12c2.5-0.44,4.79-1.54,7.13-2.48
		c11.6-4.25,23-9.05,34.67-13.14c9.35-4.12,19.12-7.22,28.42-11.44c-1.17-4.78-2.19-9.61-3.97-14.21
		c-2.98-8.65-6.51-17.33-12.11-24.65C238.07,18.01,235.97,14.13,232.18,12.3 M319.31,48.28c-0.83-1.35-1.75-2.64-2.73-3.89
		c-7.95,1.34-15.52,4.24-23.37,6c-5.11,1.59-10.29,2.94-15.21,5.08c-5.64,2.29-11.62,3.68-17.19,6.12
		c0.21,3.67,1.25,7.22,1.69,10.87c14.39-8.38,29.81-14.9,45.54-20.34C311.84,50.96,315.67,49.86,319.31,48.28 M381.35,47.85
		c-7.93-1.61-16.07-1.07-24.11-1.13c-14.22-0.34-28.11,3.36-41.64,7.31c-13.5,4.15-26.68,9.37-39.3,15.7
		c-4.72,1.66-8.61,5.1-13.47,6.39c14.45-2.65,28.87-5.59,43.23-8.68c12.74-2.38,25.52-4.59,38.22-7.14c4.93-1.43,10.01-2.22,15-3.44
		c6.73-2.26,13.69-3.96,20.09-7.11C380.18,49.3,380.72,48.52,381.35,47.85 M258.06,62.18c-10.36,5.24-21.63,8.34-32.23,13.04
		c-11.15,4.46-22.39,8.73-33.76,12.6c-4.75,2.24-9.76,3.78-14.7,5.53c1.37,3.66,1.64,7.62,3.11,11.24
		c5.88-1.88,11.87-3.43,17.58-5.82c16.32-5.46,32.42-11.6,48.33-18.16c4.95-1.55,9.37-4.33,13.59-7.28
		C260.61,69.59,258.62,65.88,258.06,62.18 M339.21,72.95c-2.21-1.79-3.61-4.37-5.87-6.11c-14.19,2.69-28.43,5.03-42.5,8.23
		c1.62,1.77,3.36,3.44,5.02,5.16c9.01,10.23,18.99,19.94,31,26.59c4.33,2.65,9.15,5.15,14.35,5.12c-1.89-3.13-4.15-6.13-7.13-8.3
		c-2.91-2.17-5.99-4.18-8.34-7c2.43,0.97,4.87,1.92,7.43,2.5c4.6,1.12,8.88,3.62,13.73,3.51c-0.29-0.95-0.45-2-1.23-2.69
		c-3.92-4.25-6.71-9.33-9.71-14.24c-1.02-2.18-2.81-4.28-2.45-6.84c4.24,2.19,5.38,7.9,10.18,9.25c5.19,1.41,10.84,2.09,16.08,0.56
		c-1.99-2.25-4.53-3.88-7.14-5.3C347.61,80.65,343.58,76.54,339.21,72.95 M358.14,73.55c-2.98,0.62-5.98,1.2-9.01,1.53
		c0.34,0.75,0.68,1.49,1.01,2.25c1.23-0.02,2.47-0.04,3.7-0.06C355.27,76.03,356.71,74.79,358.14,73.55 M303.38,94.14
		c-5.23-6.13-11.31-11.51-16.38-17.79c-3.17,0.09-6.27,0.86-9.39,1.38c1.81,9.97,1,20.88-4.4,29.68c-2.02,3.24-4.49,6.33-7.81,8.33
		c-2.4,1.73-5.57,2.7-7.08,5.42c-1.25,3.96-1.2,8.14-1.05,12.26c-3.76,0.1-7.27-1.79-11.06-1.4c-2.67-3.13-4.06-7.31-7.61-9.66
		c-3.35-3.96-9.86-3-12.99,0.73c-5.87,6.75-6.08,17.46-1.66,25.03c3.47,4.85,9.36,7.14,15.06,8.14c1.33-0.77,2.56-1.65,3.72-2.64
		c0.93-1.41,1.57,0.58,2.02,1.14c-1.07,1.81-2.41,3.71-4.6,4.19c-2.21,0.94-4.4-0.26-6.59-0.56c0.6,2.29-0.15,4.51-0.86,6.67
		c4.82,2,6.96,7.17,7.3,12.07c7.4,1.52,14.46,4.26,21.2,7.66c0.8-1.59,0.38-4.36,2.38-4.99c8.48,2.69,17.61,4.51,26.5,3.04
		c6.61-0.97,10.94-6.43,16.17-9.97c-2.73-3.57-3.77-8.08-3.23-12.52c2.87,0.23,6.19,1.75,9.17,0.44c1.59-0.87,3.08-1.9,4.58-2.91
		c-0.49-2.11-1.86-4.11-1.32-6.35c0.17-2.76,2.41-4.65,3.92-6.74c-2.49-1.95-6.12-2.15-8.01-4.87c-2.58-2.61-2.5-6.5-2.28-9.9
		c0.93-8.14,4.23-15.82,4.98-23.98c0.45-2.2-1.7-3.48-2.8-5.03c0.38,1.49,0.87,2.96,0.41,4.52c-3.59-1.15-4.36-5.69-7.88-7.02
		c-2.53-0.36-5.38,0.18-7.22,2.07c-1.13,1.19-2.15,2.49-3.33,3.65c-1.81-1.68-0.62-4.11,0.54-5.77
		C296.07,95.57,299.77,94.18,303.38,94.14 M273.65,78.78c-4.76,0.55-9.28,2.21-14.01,2.9c-9.4,1.39-17.68,6.39-26.56,9.45
		c-17.17,6.22-34.17,12.95-51.69,18.14c1.46,4.42,2.16,9.07,3.95,13.38c3.44,8.63,8.46,16.72,15.05,23.27
		c4.06,4.83,9.86,7.66,15.35,10.5c3.4,1.97,7.12,3.29,10.83,4.55c2.08,0.94,3.84-2.74,1.98-3.83c-2.88-2.12-5.71-4.44-7.87-7.3
		c-3.44-5.37-4.49-12.09-3.28-18.32c0.65-5.69,3.78-11.41,9.11-13.91c3.8-1.43,8.35-2.17,12,0.05c3.72,1.72,6.13,5.15,8.22,8.53
		c1.29,2.24,4.14,2.26,6.32,3.05c0.3-3.94-0.26-8.38,2.2-11.76c2.7-2.76,6.66-3.85,9.26-6.74c4.72-4.04,7.82-9.79,8.81-15.9
		C274.48,89.55,273.53,84.13,273.65,78.78 M242.32,181.75c-5.47-1.06-11.03-1.82-16.61-1.93l-0.52,0.38
		c-1.01,3.74-2.09,7.46-3.25,11.16c8.79-1.22,18.03-1.77,26.41,1.73c7.95,3.38,15.36,7.95,22.55,12.71
		c1.75,1.26,3.48,2.55,5.26,3.79c-0.2-3.61-0.65-7.2-0.97-10.8c0.06-1.89-1.97-2.58-3.27-3.49
		C262.71,189.53,252.8,184.78,242.32,181.75 M243.98,196.05c-5.17-1.33-10.61-2.38-15.93-1.23c-4.88,3.79-6.2,10.19-9.36,15.2
		c3.68-3.62,7.38-7.38,11.97-9.86c-2.21,5.1-6.55,8.75-10.35,12.65c-4.44,4.09-7.99,9.03-12.46,13.1c-2.55,2.49-4.5,5.54-7.22,7.86
		c-1.27,1.06-2.45,2.24-3.52,3.51c6.24,1.48,11.51,5.33,16.79,8.78c5.04,3.48,10.03,7.06,14.59,11.16c2.33,2.08,4.98,3.83,6.85,6.35
		c4.64-8.3,9.84-16.29,14.19-24.76c3.46-5.83,5.69-12.25,8.33-18.46c2.6,0.18,1.17,3.11,1.02,4.64
		c-3.48,11.59-9.03,22.43-15.27,32.75c-2.56,3.55-4.12,7.66-6.51,11.32c-6.24-0.12-12.42-0.81-18.59-1.61
		c-3.07,3.16-5.79,6.65-8.96,9.72c-2.67,2.92-6.03,5.61-7,9.66c-0.99,4.76-2.6,9.35-4.17,13.95c7.59-0.28,14.87,2.14,22.3,3.3
		c4.28,0.89,8.5,2.02,12.69,3.28c1.35,0.36,3.99,1.53,1.73,2.84c-5.73-1.45-11.53-2.61-17.29-3.99c-5.64-1.44-11.52-1.3-17.21-2.45
		c-1.01-0.11-1.83-0.61-2.44-1.47c-1.73,6.17-4.52,11.98-6.14,18.17c6.77,0.5,13.22,2.56,19.84,3.85
		c13.82,3.38,27.54,7.21,41.36,10.59c5.65,1.62,11.5,2.29,17.26,3.39c8.43,1.45,17.02,1.25,25.54,1.02
		c0.57-4.51-0.14-9.04,0.06-13.56c-0.31-15.87-0.5-31.78-2.13-47.59c-1.1-6.92-2.95-13.77-5.61-20.25c-4,0.75-7.86,2.03-11.78,3.03
		c-2.92,0.67-4.05-2.57-4.51-4.8c-2.14-9.13-4.2-18.35-4.99-27.7c3.68-1.08,7.52-1.43,11.33-1.62c-0.88-3.09-1.96-6.12-3.24-9.06
		c-1.2-3.34-4.34-5.29-6.55-7.9C260.87,204.52,253.12,198.75,243.98,196.05 M278.69,229.06c-3.09,0.36-6.07,1.33-9.17,1.67
		c2.13,9.35,3.12,19.01,6.2,28.12c3.97-1.19,7.9-2.54,11.92-3.51C284.5,246.64,282.39,237.56,278.69,229.06 M198.61,242.52
		c0.34-0.97-0.94-2.47-1.97-2.09C196.09,241.48,197.54,242.98,198.61,242.52 M221.72,257.18c-6.51-4.83-13.03-9.67-20.01-13.8
		c-6.19,9.37-12.66,18.56-18.57,28.12c-3.72,5.64-7.17,11.44-11.05,16.97c-1.97,2.71-3.41,6.11-6.63,7.58
		c-8.13,3.69-15.8,8.28-23.7,12.41c-1.09,0.65-2.61,1.01-2.97,2.41c0.76,0.1-0.07,2.49,0.69,2.59c-0.2,1.47,1.7,1.05,2.24,2.1
		c0.13,0.25,0.46,0.29,0.68,0.11c1.33-1.12,1.81-2.61,2.61-4.21c0.46-0.93,1.77-0.54,2.58-0.78c0.74,3.07-2.12,5.01-2.75,7.78
		c1.57,1.21,3.17,2.37,4.8,3.5c2.02-1.86,2.49-4.98,4.91-6.41c0.76-0.25,3.09-0.09,2.21,1.21c-1.43,2.51-3.06,4.91-4.33,7.53
		c1.67,1.21,3.44,2.25,5.25,3.24c1.7-2.05,2.96-4.44,4.91-6.27c2.17-2.08,4.93-3.39,7.75-4.28c1.28,0.55,2.51,1.21,3.62,2.04
		c-2.04,3.28-12.03,4.36-10.21,8.17c2.61-1.23,10.43-1.67,12.59-3.37c3.98-3.84,3.36-9.79,3.65-14.82c0.23-2.81-0.29-6.17,1.96-8.32
		C195.15,286.13,209.2,272.33,221.72,257.18 M226.75,260.37c-2.41-0.35-3.73,1.89-5.27,3.32c3.34,1.23,6.95,1.29,10.46,1.36
		C230.25,263.44,228.47,261.94,226.75,260.37 M217.83,331.02c-6.09-1.8-12.43-2.51-18.53-4.24c-0.31,8.61,3.48,16.89,8.54,23.67
		c1.14,2.01,2.68,3.71,4.42,5.2c0.62,3.01-2.49,5.44-2,8.5c0.23,3.91,3.67,6.33,5.93,9.13c2.5,3.04,5.56,5.75,7.26,9.34
		c0.74,1.2-1.14,2.72-2.07,1.61c-3.44-3.03-6.09-6.87-9.65-9.79c-4.2,6.39-3.26,14.5-5.7,21.53c-0.18,1.14-1.37,1.42-2.22,1.92
		c-1.85-5.38,0.35-11,0.96-16.4c-5.89,3.33-11.19,7.68-17.49,10.28c2.08,6.18,5.98,11.51,9.78,16.73c3.92,4.81,7.62,9.81,12.14,14.1
		c3.44,3.1,6.39,6.89,10.6,9c2.3-1.46,3.88-3.81,6.08-5.43c7.64-7.28,15.66-14.19,22.61-22.14c3.64-4.38,5.16-10.03,7.14-15.26
		c2.92-11.43,6.42-22.7,8.89-34.24c0.78-4,3-7.72,2.82-11.89C250.54,340.24,234.33,334.9,217.83,331.02 M278.35,345.56
		c-1.38-1.91-3.91-1.76-6-1.9c-0.56,2.22-1.48,4.48-1.21,6.81c2.38,5.63,6.71,10.24,8.5,16.14c8.12,15.95,16.69,31.69,25.55,47.25
		c1.29,2.72,3.76-0.7,5.2-1.56c2.3-2.65,6.55-3.39,7.99-6.66c-3.19-4.31-5.12-9.34-7.93-13.89c-2.85-5.87-6.39-11.37-9.11-17.31
		c-3.51-6.15-8.75-11.03-12.94-16.69C284.95,353.77,281.81,349.53,278.35,345.56 M282.42,378.22c-3.74-7.94-8.14-15.55-12.74-23.02
		c-1.91,8.89-4.62,17.59-6.68,26.45c-1.3,5.58-3.54,10.9-4.74,16.51c4.3,5.84,8.46,11.93,11,18.78c2.19,6.91,4.84,13.66,8.04,20.17
		c2.44-2.24,5.05-4.25,7.84-6.03c5.94-3.8,11.16-8.58,16.81-12.77c0.65-0.58,1.7-1.06,1.56-2.09c-2.83-5.37-6.36-10.33-9.01-15.79
		C290.5,393.01,286.02,385.85,282.42,378.22 M184.39,393.69c-4.1,1.88-7.46,4.93-11.36,7.14c3.12,10.05,9.15,18.91,16.09,26.71
		c2.45,3.4,5.86,5.87,8.92,8.65c2.49,2.07,4.79,4.38,7.51,6.14c0.95,0.54,2.29,1.35,3.18,0.27c3.12-2.74,6.15-5.59,8.86-8.74
		c-7.88-6.1-14.49-13.59-20.83-21.22C192.16,406.66,187.59,400.57,184.39,393.69 M320.85,408.85c-4.83,2.91-9.31,6.37-13.8,9.77
		c2.27,3.96,4.31,8.06,6.51,12.05c4.37-3.94,9.75-6.51,14.07-10.52C325.43,416.35,322.84,412.77,320.85,408.85 M189.51,435.64
		c-6.93-6.46-12.6-14.19-16.94-22.58c-2.53,1.91-5.31,3.49-7.49,5.85c0.83,2.92,3.36,5.32,3.48,8.37c-0.32,0.19-0.97,0.58-1.29,0.76
		c-2.37-2.48-3.58-5.78-5.75-8.42c-2.27,0.9-4.64,1.5-6.92,2.39c-5.56,2.17-10.12,6.51-13.11,11.62c3.4,5.1,5.36,11.08,9.23,15.86
		c6.47-1.53,12.84-4.12,19.6-3.72c2.52-0.06,4.48,1.9,6.95,2.05c1.38,0.08,2.76,0.02,4.12-0.02c-0.48-1.29-0.98-2.57-1.51-3.84
		C182.48,440.56,186.21,438.29,189.51,435.64 M304.94,420.03c-8.89,6.77-17.93,13.35-26.84,20.1c1.42,4.1,3.08,8.14,5.43,11.81
		c9.71-5.73,18.29-13.15,27.87-19.08C309.87,428.26,306.67,424.51,304.94,420.03 M366.21,432.84c-9.61-1.74-18.62,3.33-26.67,7.9
		c0.1,2.41,0.73,5.09-0.62,7.3c-1.95,2.63-4.85,4.74-8.21,4.99c0.84,6.04,1.35,12.21,3.26,18.03c3.08-2.17,5.51-5.08,8.48-7.38
		c3.58-2.83,6.46-6.4,9.74-9.55c4.45-4.45,8.41-9.39,11.59-14.82C364.9,437.27,366.59,435.31,366.21,432.84 M370.16,438.61
		c0.78-1.22-0.46-2.4-0.85-3.52c-1.5,5.14-4.81,9.56-7.86,13.9c-5.39,5.23-9.83,11.42-15.82,16.05c-4.07,3.8-8.22,7.52-12.47,11.12
		c-5.65,4.09-11,8.58-16.49,12.87c-1.18,0.38-2.39,0.7-3.52,1.25c0.65,1.53,2.39,3.78,4.29,2.75c5.12-2.67,9.81-6.11,14.19-9.86
		c7.05-5.1,13.54-10.89,19.88-16.82c3.37-3.04,5.72-6.97,8.75-10.3C364.21,450.61,367.2,444.58,370.16,438.61 M328.21,446.41
		c-5.12-1.88-6.58-7.82-9.96-11.61c-7.75,4.9-14.5,11.21-22.3,16.05c2.92,4.05,4.48,8.87,6.98,13.19c2.97-2.99,6.75-5.43,10.92-6.26
		l0.7,0.87c-2.92,3.57-7.56,5.04-11.4,7.41c-0.22,7.62,2.17,15.73,7.79,21.1c7.54-3.15,13.72-8.7,19.76-14.06
		C328.18,464.44,328.05,455.35,328.21,446.41 M143.95,445.46c-2.21-2.91-3.23-6.49-5.34-9.46c-1.85,3.27,1.13,6.27,2.9,8.77
		c3.83,6.19,8.02,12.16,12.36,18c3.92,4.11,7.16,8.84,11.44,12.59c6.31,5.86,12.68,12.04,20.79,15.33c1.74,0.04,3.48,0.08,5.21,0.03
		c-6.86-1.44-12.48-5.71-18.11-9.62c-0.38-1.83-2.4-2.44-3.54-3.71c-3.77-3.7-7.62-7.34-10.81-11.57c-3.39-3.36-5.53-7.7-8.93-11.04
		C148,451.63,146.16,448.43,143.95,445.46 M336.02,442.35c-1.67,0.82-3.66,1.49-4.56,3.29c-0.67,1.33,0.41,2.63,1.27,3.56
		c1.24-1.16,3.03-2.01,3.56-3.74C336.27,444.41,336.18,443.37,336.02,442.35 M172.72,449.47c-6.86-1.34-13.63,1.42-20.16,3.2
		c4.26,5.61,9,10.82,13.42,16.29c4.52,4.59,9.23,9.01,14.23,13.07c3.66,1.96,7.2,5.23,11.68,4.56c1.79-1.29,1.45-3.88,1.79-5.81
		c0.66-8.73-4.25-16.35-6.74-24.37c-2.13,1.54-4.98,2.89-7.58,1.73C175.81,456.44,175.61,451.78,172.72,449.47 M177.47,449.91
		c0.6,1.96,1.3,4.12,3.23,5.16c1.18,0.3,2.12-0.74,3.11-1.16c-0.16-2.86-2.7-3.77-5.18-3.24
		C178.34,450.48,177.76,450.11,177.47,449.91z"/>
	<path class="st0" d="M313.07,124.23c-0.99,0.78-2.45,1.13-3.08,2.28c-0.29,6.34-0.34,12.79-2.06,18.95
		c-1.12,0.06-2.61,0.46-3.24-0.82c-2.77-3.84-1.57-8.89-1.6-13.3c-0.4-0.01-1.19-0.03-1.59-0.04c1.58-4.62,5.27-10.59,11.04-9.25
		C312.66,122.59,312.93,123.69,313.07,124.23z"/>
	<path class="st0" d="M241.64,125.92c4.31,4.18,6.59,9.81,8.14,15.5c-0.44,0.04-1.32,0.13-1.76,0.17c-1.95,0.16-0.77-2.43-1.17-3.54
		c-0.05,0.78-0.1,1.57-0.16,2.35c-0.89,0.62-1.85,1.19-2.54,2.07c0.74,2.53,2.42,4.83,2.26,7.56c-0.37,0.06-1.1,0.2-1.47,0.27
		c-1.44-2.2-2.44-4.65-3.75-6.92c-1.37-0.29-2.75-0.58-4.13-0.85c0.97,3.11,5.19,4.5,4.74,8.03c-3.68-1.05-7.73-4.16-7.18-8.44
		c-0.54-5.71,5.01-9,7.26-13.61c-1.63-0.08-3.36-0.48-4.95,0.1c-1.41,0.78-2.68,1.77-4.08,2.56
		C232.63,127.01,238.15,123.97,241.64,125.92 M243.23,131.94c-2.41,2.51-5.21,4.95-6.2,8.42c0.46,0.42,0.9,0.85,1.34,1.28
		c1.95-1.99,5.26-2.29,6.8-4.82C245.71,134.95,244.08,133.43,243.23,131.94z"/>
</g>
<g>
</g>
<g>
</g>
<g>
</g>
<g>
</g>
<g>
</g>
<g>
</g>
<g>
</g>
<g>
</g>
<g>
</g>
<g>
</g>
<g>
</g>
<g>
</g>
<g>
</g>
<g>
</g>
<g>
</g>
</svg>
