<?xml version="1.0" encoding="utf-8"?>
<!-- Generator: Adobe Illustrator 28.2.0, SVG Export Plug-In . SVG Version: 6.00 Build 0)  -->
<svg version="1.1" id="Camada_1" xmlns="http://www.w3.org/2000/svg" xmlns:xlink="http://www.w3.org/1999/xlink" x="0px" y="0px"
	 viewBox="0 0 1024 1024" style="enable-background:new 0 0 1024 1024;" xml:space="preserve">
<style type="text/css">
	.st0{fill:#FFFFFF;}
	.st1{fill:#002D1B;}
</style>
<rect class="st0" width="1024" height="1024"/>
<g id="_x23_000101ff">
	<path class="st1" d="M603.8,254.8c28.7,13.6,50.1,39.1,65,66.5c5,7.6,7.8,16.4,13.2,23.8c4.3,3.5,8.1,7.6,10.8,12.5
		c43.5-11.5,88.8-16,133.7-12.6c8.8,1,19.7,2,25,10.1c3.2,5-0.8,10.6-4.7,13.7c-13.5,11.2-31.3,14-47.2,20.4
		c-23.2,6.4-46.8,11-70.5,15c2.5,6.1,8.1,10.1,13.2,14.1c8.2,5.4,18.3,2.9,27.2,0.8c6.7-1.2,11.5-7,18.4-7.8
		c6.4,13.6-6,25.4-16.5,32c5.8,4.4,12.6,7.6,18.1,12.4c5.8,5.2,4.2,16.1-3.1,19.2c-13.3,6.9-28.6,3.4-42.5,0.6
		c7.6,8.3,16.5,17.1,17.4,29c-2.7,3.5-5.9,7.5-10.7,7.9c-4.2,0.1-8.4-0.9-12.6-1.4c1.9,5.7,6.7,10.5,6.7,16.7c0.7,4.8-4,8.9-8.5,9
		c-8.1,0.7-16.4-0.6-23.8-4c-13.6-6.4-26.7-14-38.5-23.4c-0.3,1.9-0.7,3.9-1,5.9c-1,24-15,46.1-11.4,70.5
		c3.5,10.5,16.3,10,24.3,15.1c4,9-3.6,18-7.7,25.7c0.7,6.5,4.9,13.2,2.1,19.7c-3.8,6.1-10.8,8.9-16.6,12.8c-5,3.6-11.4,2.1-17.2,2.2
		c0.7,7,4.8,12.7,10,17.3c-13.6,18.3-32.2,35.8-55.8,38.8c-18.6,2.5-37.7,0.7-55.7-4.5c-3.2-1.7-5.5,1.4-7.4,3.4
		c13.5,8.3,28,15.1,40.1,25.6c-2,16.5,1.8,32.9,1.2,49.3c-1.7-0.1-5-0.2-6.7-0.3c11.2,20.8,17.6,43.5,23.5,66.2
		c8.3,23,17.2,45.8,23.1,69.4c6.7,23.4,7,48,8.8,72c1.4,40.3,3.7,80.7,3.1,121.1c-14.5,2.7-29.3,2.4-43.9,2.8
		c18.2,25.1,39.2,48,57.2,73.2c19.3,30.7,34.1,64,53.6,94.6c6.9,10.4,13.9,20.7,20.3,31.4c-4.2,4.8-9.4,8.4-14.6,12
		c-6.8,4.5-12.7,10.1-19.7,14.3c5.7,8.8,11.2,17.7,17.6,26.1c5.1-3.8,10.8-6.6,16.6-9.1c15.7-6.7,28.8-18.3,45.3-23.2
		c11.6-4.1,24.6-5.7,36.7-2.9c8,4.7,17.8,10.2,20.6,19.6c-4,23.6-18.6,43.3-32.2,62.3c-16.8,20.2-35.5,38.7-56,55.1
		c-15.8,14.2-33.2,26.4-51.7,36.7c-4.5,2.1-9.3,4.1-14.3,4.4c-4.6-0.9-7.5-4.7-10.3-8.1c-8.1-10.5-18.2-19.7-23-32.3
		c-6.1-11.7-7-24.9-7.8-37.8c-2.5-12.8-10.4-23.7-16.4-35.1c-9.2,5.5-18.5,10.9-28.4,14.8c-5.8-6.1-7.7-14.4-11.2-21.8
		c-11.3-25.3-21.7-51-32.9-76.3c-7.5-16.1-13.4-33.1-23-48.2c-11.7,20.2-29.6,35.4-45.8,51.8c-25.6,23.4-50.2,47.9-75.2,72.1
		c-14-8.7-26-20.2-38.2-31.1c-8.9,2-15.3,10.7-23.2,15.3c7.1,13.3,15.8,25.9,21,40.1c8.2,19.7,16.5,41.3,11.8,62.9
		c-2,10.4-7.6,21.3-18.1,25.3c-8.9,1.6-18.5-1.1-25.6-6.7c-18-9.3-33-23.2-47.1-37.5c-16.2-15.5-29.5-33.6-43-51.4
		c-10.8-17.1-23.6-33.1-30.8-52.2c5.5-8.8,12.9-16.2,19-24.6c7-9,15.8-16.5,26.1-21.3c8.3-4.6,17.9-5.3,26.7-8.3
		c8.5-4.8,15.5-12.1,24.7-15.5c-3.6-8.3-8.8-16.1-11.2-24.9c-0.9-3.5,3.4-4.8,5.5-6.6c30.5-17.2,60.3-35.3,89.9-54
		c7.2-3.8,8.7-12.4,10.1-19.7c-2.2-4.2-6.3-7.6-6.4-12.6c-1-5.9,2.1-11.2,4.4-16.4c-19.5-23.4-35.6-51.8-35-83.1
		c-5.5-0.9-11.1-1.5-16.5-2.7c0.7-18.3,9-34.9,14.6-52.1c4.4-11.5,7.3-23.5,11.8-35c-9.8,8.3-17.6,18.8-26.9,27.5
		c-3,3.5-8.2,6.5-7.5,11.8c-0.2,15.4,2.2,32.3-6.9,45.8c-5.9,8.2-11.1,16.7-16.5,25.2c-3.5-0.1-7.6,1.3-10.4-1.5
		c-8.4-6.6-8.1-19.1-3.8-28c-11.2,1.9-15.2,13.9-23.5,20.1c-7.2,4.8-15.9-0.1-20.9-5.8c-5.4-6.8-15.3-7.4-20.6-14.4
		c-4.1-5.4-10.5-8.6-14.3-14.3c-4.1-4.9-9.4-11-6.9-17.9c1.6-6.2,8-8.9,13.2-11.4c14.4-6.2,26.6-16.5,41-22.8
		c7.3-4,15.9-5.4,22.5-10.6c26.6-38.5,48.8-80.1,77.8-116.9c-5.2-6.5-10-13.3-14.4-20.3c9.2-10.8,19.6-20.6,28.8-31.4
		c7.9-9.2,17.9-16.7,24.4-27c7.9-15.5,16.1-31,27.2-44.4c-4.1-3.3-12.8-5-11.1-12c3.3-15.5,7.3-30.8,11.5-46
		c12.4-1.6,24.8,0.1,37.3-0.1c-1.4-6.3-3.5-13.1-9.5-16.5c-12.1-6.5-23.7-14.3-36.7-19c-19.3-7.4-37.3-17.8-52.6-31.8
		c-25.6-24.6-42.6-57.3-50.7-91.8c-4.3-20.9-12.1-41.1-13.3-62.5c-5.2-21-7.6-42.7-5.9-64.3c1.8-25.1,10.8-49.9,26.6-69.5
		c20.2-27.8,50.9-45,81.1-59.8c-0.4-4.7-1.2-9.4-1.1-14.1c2.7-3.7,6.9-5.7,10.7-8c10.2-6.2,22.7-9.1,34.6-7.4
		c5.9,0.9,8.1,7.3,10.9,11.7c14-4.3,28.5-7.4,43.1-9.1C534.4,243.6,571.1,240.3,603.8,254.8 M444.4,253.5
		c-12.1-0.9-23.8,3.2-34.3,8.9c0.8,2.2-1.1,7,2.5,6.7c11.3-3.2,21.7-9.1,33.3-11.3C445.6,256.8,444.8,254.6,444.4,253.5
		 M592.8,263.7c-19-8.2-40.1-7.4-60.2-6.8c-23.8,1-47.7,2.4-71.1,6.9c6.2,8.6,15.3,14.5,21.5,23.2c15.9,20.8,26,45.2,33.4,70
		c3.1,10.1,6.6,20.1,8.1,30.6c43.9-15.5,87.9-31.4,133.3-41.8c3.2-1.1,7.4-0.4,9.5-3.4c-10.2-17-20.5-34.2-33.9-49
		C621.4,281.5,608.9,269.4,592.8,263.7 M453.4,268.1c-7.9-0.9-15,3.7-22.4,5.9c-26.4,8.1-50.2,22.5-72.6,38.3
		c-18.3,15.5-36,33.5-44,56.7c-8,20.3-7.4,42.7-6.5,64.1c1.8,11.4,3.2,23,5.4,34.3c8.1-2.4,15.7-6.4,24.1-8c6.4-1.1,12.3-4,18.3-6.4
		c29.9-10.9,59.2-23.3,89.2-33.8c24.1-10.6,49.2-18.6,73.1-29.5c-3-12.3-5.6-24.7-10.2-36.6c-7.7-22.2-16.7-44.6-31.1-63.4
		C468.5,282.8,463.1,272.8,453.4,268.1 M677.5,360.7c-2.1-3.5-4.5-6.8-7-10c-20.5,3.5-39.9,10.9-60.1,15.4
		c-13.1,4.1-26.5,7.6-39.1,13.1c-14.5,5.9-29.9,9.5-44.2,15.8c0.5,9.4,3.2,18.6,4.4,28c37-21.6,76.7-38.3,117.2-52.3
		C658.3,367.6,668.2,364.7,677.5,360.7 M837.2,359.6c-20.4-4.1-41.3-2.8-62-2.9c-36.6-0.9-72.3,8.6-107.2,18.8
		c-34.7,10.7-68.6,24.1-101.1,40.4c-12.2,4.3-22.2,13.1-34.7,16.5c37.2-6.8,74.3-14.4,111.2-22.3c32.8-6.1,65.7-11.8,98.3-18.4
		c12.7-3.7,25.8-5.7,38.6-8.8c17.3-5.8,35.2-10.2,51.7-18.3C834.2,363.3,835.5,361.3,837.2,359.6 M519.9,396.5
		c-26.6,13.5-55.6,21.5-82.9,33.6c-28.7,11.5-57.6,22.5-86.9,32.4c-12.2,5.8-25.1,9.7-37.8,14.2c3.5,9.4,4.2,19.6,8,28.9
		c15.1-4.8,30.5-8.8,45.2-15c42-14,83.4-29.9,124.3-46.7c12.7-4,24.1-11.1,35-18.7C526.5,415.5,521.4,406,519.9,396.5 M728.8,424.1
		c-5.7-4.6-9.3-11.2-15.1-15.7c-36.5,6.9-73.1,13-109.3,21.2c4.2,4.5,8.6,8.8,12.9,13.3c23.2,26.3,48.9,51.3,79.8,68.4
		c11.1,6.8,23.5,13.3,36.9,13.2c-4.8-8.1-10.7-15.8-18.3-21.4c-7.5-5.6-15.4-10.8-21.5-18c6.2,2.5,12.5,4.9,19.1,6.4
		c11.8,2.9,22.8,9.3,35.3,9c-0.7-2.5-1.2-5.1-3.2-6.9c-10.1-10.9-17.3-24-25-36.6c-2.6-5.6-7.2-11-6.3-17.6
		c10.9,5.6,13.8,20.3,26.2,23.8c13.3,3.6,27.9,5.4,41.4,1.4c-5.1-5.8-11.7-10-18.4-13.6C750.4,444,740,433.4,728.8,424.1
		 M777.4,425.7c-7.7,1.6-15.4,3.1-23.2,4c0.9,1.9,1.8,3.9,2.6,5.8c3.2-0.1,6.3-0.1,9.5-0.1C770.1,432.1,773.8,428.9,777.4,425.7
		 M636.5,478.7c-13.5-15.8-29.1-29.6-42.2-45.8c-8.2,0.2-16.1,2.2-24.2,3.6c4.7,25.7,2.6,53.7-11.3,76.4
		c-5.2,8.3-11.6,16.3-20.1,21.4c-6.2,4.5-14.3,7-18.2,13.9c-3.2,10.2-3.1,21-2.7,31.5c-9.7,0.2-18.7-4.6-28.5-3.6
		c-6.9-8.1-10.5-18.8-19.6-24.9c-8.6-10.2-25.4-7.7-33.4,1.9c-15.1,17.4-15.6,44.9-4.3,64.4c8.9,12.5,24.1,18.4,38.7,20.9
		c3.4-2,6.6-4.3,9.6-6.8c2.4-3.6,4,1.5,5.2,2.9c-2.8,4.7-6.2,9.5-11.8,10.8c-5.7,2.4-11.3-0.7-17-1.4c1.5,5.9-0.4,11.6-2.2,17.2
		c12.4,5.1,17.9,18.4,18.8,31c19,3.9,37.2,11,54.5,19.7c2.1-4.1,1-11.2,6.1-12.8c21.8,6.9,45.3,11.6,68.2,7.8
		c17-2.5,28.2-16.5,41.6-25.7c-7-9.2-9.7-20.8-8.3-32.2c7.4,0.6,15.9,4.5,23.6,1.1c4.1-2.2,7.9-4.9,11.8-7.5
		c-1.2-5.4-4.8-10.6-3.4-16.3c0.4-7.1,6.2-12,10.1-17.3c-6.4-5-15.8-5.5-20.6-12.5c-6.6-6.7-6.4-16.7-5.9-25.5
		c2.4-20.9,10.9-40.7,12.8-61.7c1.2-5.6-4.4-9-7.2-12.9c1,3.8,2.2,7.6,1,11.6c-9.2-3-11.2-14.6-20.3-18.1
		c-6.5-0.9-13.8,0.5-18.6,5.3c-2.9,3.1-5.5,6.4-8.6,9.4c-4.7-4.3-1.6-10.6,1.4-14.9C617.8,482.4,627.3,478.8,636.5,478.7
		 M560.1,439.2c-12.2,1.4-23.9,5.7-36,7.5c-24.2,3.6-45.5,16.4-68.3,24.3c-44.2,16-87.9,33.3-133,46.7c3.8,11.4,5.5,23.3,10.2,34.4
		c8.9,22.2,21.8,43,38.7,59.9c10.5,12.4,25.4,19.7,39.5,27c8.7,5.1,18.3,8.5,27.9,11.7c5.4,2.4,9.9-7,5.1-9.8
		c-7.4-5.5-14.7-11.4-20.2-18.8c-8.9-13.8-11.6-31.1-8.5-47.1c1.7-14.6,9.7-29.4,23.4-35.8c9.8-3.7,21.5-5.6,30.9,0.1
		c9.6,4.4,15.8,13.2,21.1,21.9c3.3,5.8,10.6,5.8,16.3,7.8c0.8-10.1-0.7-21.6,5.7-30.3c7-7.1,17.1-9.9,23.8-17.3
		c12.1-10.4,20.1-25.2,22.7-40.9C562.2,466.9,559.8,452.9,560.1,439.2 M479.5,704.1c-14.1-2.7-28.4-4.7-42.7-5l-1.3,1
		c-2.6,9.6-5.4,19.2-8.4,28.7c22.6-3.2,46.4-4.6,68,4.4c20.5,8.7,39.5,20.5,58,32.7c4.5,3.2,9,6.6,13.5,9.8
		c-0.5-9.3-1.7-18.5-2.5-27.8c0.1-4.8-5.1-6.6-8.4-9C531.9,724.1,506.4,711.9,479.5,704.1 M483.7,740.9c-13.3-3.4-27.3-6.1-41-3.2
		c-12.6,9.8-16,26.2-24.1,39.1c9.5-9.3,19-19,30.8-25.4c-5.7,13.1-16.9,22.5-26.6,32.5c-11.4,10.5-20.6,23.2-32.1,33.7
		c-6.6,6.4-11.6,14.2-18.6,20.2c-3.3,2.7-6.3,5.8-9,9c16.1,3.8,29.6,13.7,43.2,22.6c13,9,25.8,18.2,37.5,28.7
		c6,5.3,12.8,9.8,17.6,16.3c11.9-21.4,25.3-41.9,36.5-63.7c8.9-15,14.6-31.5,21.4-47.5c6.7,0.5,3,8,2.6,11.9
		c-8.9,29.8-23.2,57.7-39.3,84.3c-6.6,9.1-10.6,19.7-16.7,29.1c-16.1-0.3-32-2.1-47.8-4.2c-7.9,8.1-14.9,17.1-23,25
		c-6.9,7.5-15.5,14.4-18,24.9c-2.5,12.2-6.7,24.1-10.7,35.9c19.5-0.7,38.3,5.5,57.4,8.5c11,2.3,21.9,5.2,32.6,8.5
		c3.5,0.9,10.3,3.9,4.4,7.3c-14.7-3.7-29.7-6.7-44.5-10.3c-14.5-3.7-29.6-3.3-44.3-6.3c-2.6-0.3-4.7-1.6-6.3-3.8
		c-4.5,15.9-11.6,30.8-15.8,46.8c17.4,1.3,34,6.6,51,9.9c35.5,8.7,70.9,18.6,106.4,27.2c14.5,4.2,29.6,5.9,44.4,8.7
		c21.7,3.7,43.8,3.2,65.7,2.6c1.5-11.6-0.4-23.3,0.1-34.9c-0.8-40.8-1.3-81.8-5.5-122.5c-2.8-17.8-7.6-35.4-14.4-52.1
		c-10.3,1.9-20.2,5.2-30.3,7.8c-7.5,1.7-10.4-6.6-11.6-12.4c-5.5-23.5-10.8-47.2-12.8-71.3c9.5-2.8,19.3-3.7,29.2-4.2
		c-2.3-8-5-15.8-8.3-23.3c-3.1-8.6-11.2-13.6-16.8-20.3C527.2,762.7,507.2,747.8,483.7,740.9 M573,825.8c-8,0.9-15.6,3.4-23.6,4.3
		c5.5,24.1,8,48.9,16,72.4c10.2-3.1,20.3-6.5,30.7-9C588,871,582.5,847.7,573,825.8 M367,860.5c0.9-2.5-2.4-6.3-5.1-5.4
		C360.5,857.8,364.2,861.6,367,860.5 M426.4,898.2c-16.7-12.4-33.5-24.9-51.5-35.5c-15.9,24.1-32.6,47.8-47.8,72.4
		c-9.6,14.5-18.4,29.5-28.4,43.7c-5.1,7-8.8,15.7-17.1,19.5c-20.9,9.5-40.6,21.3-61,31.9c-2.8,1.7-6.7,2.6-7.6,6.2
		c1.9,0.3,5.8,0.8,7.8,1c-0.6,4.3-1.2,8.6-0.8,13c4.5-2.9,6.7-7.9,9-12.5c1.2-2.4,4.5-1.4,6.6-2c1.9,7.9-5.4,12.9-7.1,20
		c4.1,3.1,8.2,6.1,12.4,9c5.2-4.8,6.4-12.8,12.6-16.5c1.9-0.6,8-0.2,5.7,3.1c-3.7,6.5-7.9,12.7-11.1,19.4c4.3,3.1,8.9,5.8,13.5,8.3
		c4.4-5.3,7.6-11.4,12.6-16.1c5.6-5.3,12.7-8.7,20-11c3.3,1.4,6.5,3.1,9.3,5.2c-5.2,8.4-9.9,19-5.2,28.8c6.7-3.2,5.7-12.1,11.3-16.4
		c10.2-9.9,8.6-25.2,9.4-38.1c0.6-7.2-0.7-15.9,5-21.4C358.1,972.7,394.2,937.2,426.4,898.2 M439.4,906.4c-6.2-0.9-9.6,4.9-13.5,8.5
		c8.6,3.2,17.9,3.3,26.9,3.5C448.4,914.3,443.8,910.4,439.4,906.4 M416.4,1088.2c-15.7-4.6-32-6.5-47.7-10.9
		c-0.8,22.2,9,43.5,22,60.9c2.9,5.2,6.9,9.5,11.4,13.4c1.6,7.8-6.4,14-5.1,21.9c0.6,10.1,9.4,16.3,15.3,23.5
		c6.4,7.8,14.3,14.8,18.7,24c1.9,3.1-2.9,7-5.3,4.2c-8.9-7.8-15.7-17.7-24.8-25.2c-10.8,16.4-8.4,37.3-14.7,55.4
		c-0.5,2.9-3.5,3.7-5.7,4.9c-4.8-13.8,0.9-28.3,2.5-42.2c-15.1,8.6-28.8,19.8-45,26.4c5.4,15.9,15.4,29.6,25.2,43
		c10.1,12.4,19.6,25.2,31.2,36.3c8.8,8,16.4,17.7,27.3,23.2c5.9-3.8,10-9.8,15.6-14c19.7-18.7,40.3-36.5,58.2-57
		c9.4-11.3,13.3-25.8,18.4-39.3c7.5-29.4,16.5-58.4,22.9-88.1c2-10.3,7.7-19.9,7.3-30.6C500.6,1111.9,458.9,1098.1,416.4,1088.2
		 M572.2,1125.6c-3.6-4.9-10.1-4.5-15.4-4.9c-1.4,5.7-3.8,11.5-3.1,17.5c6.1,14.5,17.2,26.3,21.9,41.5c20.9,41,42.9,81.5,65.7,121.6
		c3.3,7,9.7-1.8,13.4-4c5.9-6.8,16.8-8.7,20.6-17.1c-8.2-11.1-13.2-24-20.4-35.7c-7.3-15.1-16.4-29.3-23.4-44.5
		c-9-15.8-22.5-28.4-33.3-42.9C589.1,1146.7,581,1135.8,572.2,1125.6 M582.6,1209.6c-9.6-20.4-21-40-32.8-59.2
		c-4.9,22.9-11.9,45.3-17.2,68.1c-3.3,14.3-9.1,28.1-12.2,42.5c11.1,15,21.8,30.7,28.3,48.3c5.6,17.8,12.5,35.1,20.7,51.9
		c6.3-5.8,13-10.9,20.2-15.5c15.3-9.8,28.7-22.1,43.2-32.9c1.7-1.5,4.4-2.7,4-5.4c-7.3-13.8-16.4-26.6-23.2-40.6
		C603.4,1247.7,591.9,1229.2,582.6,1209.6 M330.4,1249.4c-10.5,4.8-19.2,12.7-29.2,18.4c8,25.8,23.5,48.7,41.4,68.7
		c6.3,8.7,15.1,15.1,23,22.3c6.4,5.3,12.3,11.3,19.3,15.8c2.5,1.4,5.9,3.5,8.2,0.7c8-7.1,15.8-14.4,22.8-22.5
		c-20.3-15.7-37.3-35-53.6-54.6C350.4,1282.8,338.6,1267.1,330.4,1249.4 M681.5,1288.4c-12.4,7.5-24,16.4-35.5,25.2
		c5.8,10.2,11.1,20.7,16.8,31c11.2-10.1,25.1-16.8,36.2-27.1C693.3,1307.7,686.6,1298.5,681.5,1288.4 M343.6,1357.3
		c-17.8-16.6-32.4-36.5-43.6-58.1c-6.5,4.9-13.7,9-19.3,15.1c2.1,7.5,8.7,13.7,8.9,21.5c-0.8,0.5-2.5,1.5-3.3,1.9
		c-6.1-6.4-9.2-14.9-14.8-21.7c-5.8,2.3-12,3.9-17.8,6.2c-14.3,5.6-26,16.8-33.7,29.9c8.7,13.1,13.8,28.5,23.8,40.8
		c16.6-3.9,33-10.6,50.4-9.6c6.5-0.2,11.5,4.9,17.9,5.3c3.6,0.2,7.1,0,10.6,0c-1.2-3.3-2.5-6.6-3.9-9.9
		C325.5,1370,335.1,1364.2,343.6,1357.3 M640.6,1317.2c-22.9,17.4-46.1,34.4-69,51.7c3.7,10.6,7.9,20.9,14,30.4
		c25-14.7,47.1-33.8,71.7-49.1C653.2,1338.4,645,1328.7,640.6,1317.2 M798.2,1350.1c-24.7-4.5-47.9,8.6-68.6,20.3
		c0.2,6.2,1.9,13.1-1.6,18.8c-5,6.8-12.5,12.2-21.1,12.8c2.2,15.6,3.5,31.4,8.4,46.4c7.9-5.6,14.2-13.1,21.8-19
		c9.2-7.3,16.6-16.5,25.1-24.6c11.5-11.4,21.6-24.2,29.8-38.1C794.9,1361.6,799.2,1356.5,798.2,1350.1 M808.4,1365
		c2-3.2-1.2-6.2-2.2-9.1c-3.9,13.2-12.4,24.6-20.2,35.8c-13.9,13.4-25.3,29.4-40.7,41.3c-10.5,9.8-21.1,19.3-32.1,28.6
		c-14.5,10.5-28.3,22.1-42.4,33.1c-3,1-6.2,1.8-9.1,3.2c1.7,3.9,6.2,9.7,11,7.1c13.2-6.9,25.2-15.7,36.5-25.4
		c18.1-13.1,34.8-28,51.2-43.3c8.7-7.8,14.7-17.9,22.5-26.5C793.1,1395.9,800.8,1380.4,808.4,1365 M700.5,1385.1
		c-13.2-4.8-16.9-20.1-25.6-29.9c-20,12.6-37.3,28.8-57.4,41.3c7.5,10.4,11.5,22.8,18,33.9c7.7-7.7,17.4-14,28.1-16.1l1.8,2.2
		c-7.5,9.2-19.5,13-29.3,19.1c-0.6,19.6,5.6,40.5,20,54.3c19.4-8.1,35.3-22.4,50.8-36.2C700.4,1431.5,700,1408.1,700.5,1385.1
		 M226.4,1382.6c-5.7-7.5-8.3-16.7-13.7-24.3c-4.8,8.4,2.9,16.1,7.5,22.6c9.9,15.9,20.6,31.3,31.8,46.3
		c10.1,10.6,18.4,22.7,29.5,32.4c16.2,15.1,32.6,31,53.5,39.4c4.5,0.1,8.9,0.2,13.4,0.1c-17.7-3.7-32.1-14.7-46.6-24.8
		c-1-4.7-6.2-6.3-9.1-9.5c-9.7-9.5-19.6-18.9-27.8-29.8c-8.7-8.6-14.2-19.8-23-28.4C236.8,1398.5,232,1390.2,226.4,1382.6
		 M720.5,1374.6c-4.3,2.1-9.4,3.8-11.7,8.5c-1.7,3.4,1,6.8,3.3,9.2c3.2-3,7.8-5.2,9.2-9.6C721.2,1379.9,721,1377.2,720.5,1374.6
		 M300.4,1392.9c-17.6-3.4-35.1,3.7-51.9,8.2c11,14.4,23.1,27.8,34.5,41.9c11.6,11.8,23.8,23.2,36.6,33.6c9.4,5,18.5,13.5,30,11.7
		c4.6-3.3,3.7-10,4.6-14.9c1.7-22.4-10.9-42.1-17.4-62.7c-5.5,4-12.8,7.4-19.5,4.5C308.3,1410.9,307.8,1398.9,300.4,1392.9
		 M312.6,1394.1c1.5,5,3.4,10.6,8.3,13.3c3,0.8,5.5-1.9,8-3c-0.4-7.4-7-9.7-13.3-8.3C314.8,1395.5,313.3,1394.6,312.6,1394.1z"/>
	<path class="st1" d="M644.3,549.6c-2.5,2-6.3,2.9-7.9,5.9c-0.7,16.3-0.9,32.9-5.3,48.8c-2.9,0.2-6.7,1.2-8.3-2.1
		c-7.1-9.9-4-22.9-4.1-34.2c-1,0-3.1-0.1-4.1-0.1c4.1-11.9,13.6-27.2,28.4-23.8C643.2,545.3,643.9,548.2,644.3,549.6z"/>
	<path class="st1" d="M460.5,553.9c11.1,10.8,17,25.2,21,39.9c-1.1,0.1-3.4,0.3-4.5,0.4c-5,0.4-2-6.2-3-9.1c-0.1,2-0.2,4-0.4,6
		c-2.3,1.6-4.8,3.1-6.5,5.3c1.9,6.5,6.2,12.4,5.8,19.5c-1,0.2-2.8,0.5-3.8,0.7c-3.7-5.7-6.3-12-9.6-17.8c-3.5-0.7-7.1-1.5-10.6-2.2
		c2.5,8,13.4,11.6,12.2,20.7c-9.5-2.7-19.9-10.7-18.5-21.7c-1.4-14.7,12.9-23.2,18.7-35c-4.2-0.2-8.6-1.2-12.7,0.3
		c-3.6,2-6.9,4.5-10.5,6.6C437.3,556.7,451.5,548.9,460.5,553.9 M464.6,569.4c-6.2,6.5-13.4,12.8-16,21.7c1.2,1.1,2.3,2.2,3.5,3.3
		c5-5.1,13.5-5.9,17.5-12.4C470.9,577.1,466.7,573.2,464.6,569.4z"/>
</g>
</svg>
