<?xml version="1.0" encoding="utf-8"?>
<!-- Generator: Adobe Illustrator 28.2.0, SVG Export Plug-In . SVG Version: 6.00 Build 0)  -->
<svg version="1.1" id="Camada_1" xmlns="http://www.w3.org/2000/svg" xmlns:xlink="http://www.w3.org/1999/xlink" x="0px" y="0px"
	 viewBox="0 0 400 150" style="enable-background:new 0 0 400 150;" xml:space="preserve">
<style type="text/css">
	.st0{fill:#50D594;}
	.st1{fill:#FFBD92;}
	.st2{fill:#57220E;}
	.st3{fill:#263A50;}
</style>
<g>
	<path class="st0" d="M54.79,48.83c0-1.92,0.69-3.49,2.08-4.72c1.39-1.23,3.19-1.84,5.4-1.84c2.21,0,4.01,0.61,5.4,1.84
		c1.39,1.23,2.08,2.8,2.08,4.72s-0.69,3.49-2.08,4.72c-1.39,1.23-3.19,1.84-5.4,1.84c-2.21,0-4.01-0.61-5.4-1.84
		C55.49,52.32,54.79,50.75,54.79,48.83z M69.11,103.27H55.59V59.99h13.52V103.27z"/>
	<path class="st0" d="M97.71,48.83c0-1.92,0.69-3.49,2.08-4.72c1.39-1.23,3.19-1.84,5.4-1.84c2.21,0,4.01,0.61,5.4,1.84
		c1.39,1.23,2.08,2.8,2.08,4.72s-0.69,3.49-2.08,4.72c-1.39,1.23-3.19,1.84-5.4,1.84c-2.21,0-4.01-0.61-5.4-1.84
		C98.41,52.32,97.71,50.75,97.71,48.83z M112.03,103.27H98.51V59.99h13.52V103.27z"/>
	<path class="st0" d="M132.71,59.99l0.44,5.08c2.99-3.92,7.11-5.88,12.36-5.88c4.51,0,7.87,1.35,10.1,4.04
		c2.23,2.69,3.38,6.75,3.46,12.16v27.88h-13.52V75.95c0-2.19-0.44-3.79-1.32-4.82s-2.48-1.54-4.8-1.54c-2.64,0-4.6,1.04-5.88,3.12
		v30.56h-13.48V59.99H132.71z"/>
	<path class="st0" d="M187.48,104.07c-6.64,0-12.01-1.98-16.12-5.94c-4.11-3.96-6.16-9.11-6.16-15.46v-1.12
		c0-4.43,0.82-8.33,2.46-11.72c1.64-3.39,4.03-6.01,7.18-7.86c3.15-1.85,6.88-2.78,11.2-2.78c6.08,0,10.88,1.89,14.4,5.66
		c3.52,3.77,5.28,9.03,5.28,15.78v5.24h-26.8c0.48,2.43,1.53,4.33,3.16,5.72c1.63,1.39,3.73,2.08,6.32,2.08c4.27,0,7.6-1.49,10-4.48
		l6.16,7.28c-1.68,2.32-4.06,4.17-7.14,5.54S191.02,104.07,187.48,104.07z M185.96,69.59c-3.95,0-6.29,2.61-7.04,7.84h13.6v-1.04
		c0.05-2.16-0.49-3.83-1.64-5.02C189.73,70.18,188.09,69.59,185.96,69.59z"/>
	<path class="st0" d="M237.32,72.19l-4.44-0.32c-4.24,0-6.96,1.33-8.16,4v27.4h-13.48V59.99h12.64l0.44,5.56
		c2.27-4.24,5.43-6.36,9.48-6.36c1.44,0,2.69,0.16,3.76,0.48L237.32,72.19z"/>
	<path class="st0" d="M265.36,103.27c-0.48-0.88-0.91-2.17-1.28-3.88c-2.48,3.12-5.95,4.68-10.4,4.68c-4.08,0-7.55-1.23-10.4-3.7
		c-2.85-2.47-4.28-5.57-4.28-9.3c0-4.69,1.73-8.24,5.2-10.64c3.47-2.4,8.51-3.6,15.12-3.6h4.16v-2.29c0-3.99-1.72-5.99-5.16-5.99
		c-3.2,0-4.8,1.58-4.8,4.74h-13.48c0-4.18,1.78-7.58,5.34-10.19c3.56-2.61,8.1-3.92,13.62-3.92c5.52,0,9.88,1.35,13.08,4.04
		c3.2,2.69,4.84,6.39,4.92,11.08v19.16c0.05,3.97,0.67,7.01,1.84,9.12v0.68H265.36z M256.92,94.47c1.68,0,3.07-0.36,4.18-1.08
		c1.11-0.72,1.9-1.53,2.38-2.44v-6.92h-3.92c-4.69,0-7.04,2.11-7.04,6.32c0,1.23,0.41,2.22,1.24,2.98
		C254.58,94.09,255.64,94.47,256.92,94.47z"/>
	<path class="st0" d="M296.84,59.99l0.44,5.08c2.99-3.92,7.11-5.88,12.36-5.88c4.51,0,7.87,1.35,10.1,4.04
		c2.23,2.69,3.38,6.75,3.46,12.16v27.88h-13.52V75.95c0-2.19-0.44-3.79-1.32-4.82s-2.48-1.54-4.8-1.54c-2.64,0-4.6,1.04-5.88,3.12
		v30.56H284.2V59.99H296.84z"/>
	<path class="st0" d="M346.36,49.23v10.76h7.12v9.36h-7.12v19.8c0,1.63,0.29,2.76,0.88,3.4c0.59,0.64,1.75,0.96,3.48,0.96
		c1.33,0,2.45-0.08,3.36-0.24v9.64c-2.43,0.77-4.96,1.16-7.6,1.16c-4.64,0-8.07-1.09-10.28-3.28c-2.21-2.19-3.32-5.51-3.32-9.96
		V69.35h-5.52v-9.36h5.52V49.23H346.36z"/>
</g>
<g>
	<path class="st0" d="M78.49,23.02c0.52-0.14,0.81,0.39,1.22,0.56c0.54,0.01,1.05-0.18,1.57-0.3c1.01-0.27,2.09-0.33,3.14-0.26
		c3.09,0.33,6.07,1.41,8.54,3.09c1.44,1.23,2.95,2.43,4.05,3.92c2.44,0.16,4.89-0.02,7.34,0.11c1.23,0.08,2.5-0.05,3.7,0.27
		c-0.41,1.31-1.64,2.26-3.01,2.77c-1.38,0.53-2.83,0.91-4.28,1.28c-1.49,0.27-2.99,0.49-4.49,0.69c-0.53,0.06-1.06,0.1-1.59,0.14
		c-0.1,0.29-0.19,0.58-0.3,0.87c0.03-0.34,0.04-0.68,0.06-1.02c-0.79,0-1.58,0.07-2.36,0.17c-1.33,0.13-2.66-0.12-3.99,0.03
		c-2.37,0.58-4.73,1.22-7.01,2.06c-3.7,1.14-7.26,2.57-10.92,3.81c-0.02,0.13-0.06,0.4-0.08,0.53c-0.29-0.97-0.76-1.9-1.05-2.87
		c-0.54-1.7-0.56-3.49-0.39-5.23c0.26-1.73,0.89-3.44,2.08-4.85c1.5-1.62,3.36-2.97,5.43-3.98c0.67-0.25,0.87-0.91,1.29-1.38
		C77.74,23.23,78.12,23.11,78.49,23.02z"/>
	<path class="st0" d="M78.45,51.8c0.27-0.75,0.52-1.61,1.46-1.91c1.3,0.65,2.76,0.95,4.17,1.34c1.15,0.3,2.28,0.67,3.4,1.05
		c1.55,0.32,2.47,1.51,3.32,2.59c0.34,0.65,0.27,1.42,0.74,2.02c1,1.35,1.68,2.87,2.13,4.43c0.67,2.36,2.34,4.38,3,6.74
		c0.13,0.68-0.83,0.9-1.33,1.21c-0.08-0.22-0.17-0.44-0.24-0.66c-0.88,0.05-1.75,0.17-2.58,0.43c-1.47,0.43-3,0.81-4.31,1.57
		c-0.37,0.13-0.26,0.5-0.21,0.77c0.19,0.77,0.62,1.46,0.99,2.17c0.74,1.3,1.41,2.65,2.42,3.8c1.27,1.43,2.53,2.86,3.86,4.25
		c0.14,1.79,0.39,3.59,0.19,5.39c-0.55,0.04-1.1,0.09-1.66,0.08c-2-0.14-4.01,0.02-5.99,0.22c-3.69,0.46-7.36,1.56-11.13,1.15
		c-0.84-0.09-1.68-0.21-2.49-0.42c-1.01-0.31-2.08-0.53-3-1.02c-0.1-0.33-0.1-0.68-0.09-1.02c0.15-2.56,0.35-5.16,1.2-7.63
		c0.21-0.65,0.51-1.28,0.65-1.94c0.12-0.62-0.07-1.24-0.21-1.84c0.18-1.74,0.15-3.49,0.2-5.23c0.1-0.63-0.5-1.03-1.03-1.33
		c-0.84-0.44-1.66-0.91-2.47-1.41c0.22-0.66,0.46-1.32,0.83-1.93c0.86-1.45,1.76-2.88,2.74-4.27c0.72-1.03,1.63-1.95,2.15-3.08
		c0.36-0.77,0.65-1.56,1.11-2.29C76.94,53.91,78.01,53.01,78.45,51.8z"/>
	<path class="st0" d="M55.38,116.03c1.15-0.42,2.78-0.4,3.57,0.56c0.02,1.05-0.12,2.12,0.2,3.14c0.27,0.96,1.04,1.78,2.02,2.24
		c0.79,0.41,1.72,0.43,2.59,0.56c0.56,0.11,1.17,0.5,1.14,1.07c0.07,1.28-0.37,2.55-0.16,3.83c0.1,1.16,0.69,2.21,1.06,3.31
		c-0.05,0.39-0.13,0.79-0.22,1.18c-0.2,0.15-0.41,0.3-0.6,0.46c-1.14-0.64-1.87-1.66-2.72-2.56c-3.39-3.72-6.75-7.47-9.93-11.34
		c-0.11-0.21-0.51-0.51-0.19-0.71C53.11,117.06,54.23,116.5,55.38,116.03z"/>
	<path class="st0" d="M120.15,117.39c-1.74,1.5-3.6,2.91-5.56,4.18c-1.11,0.81-2.22,1.62-3.41,2.35c-1.77,1.18-3.51,2.41-5.32,3.53
		c-0.84,0.53-1.62,1.13-2.56,1.5c-1.01-1.47-2.24-2.99-2.19-4.8c-0.05-0.67,0.39-1.39,1.16-1.56c1.1-0.13,2.24-0.1,3.32-0.39
		c1.21-0.33,2.26-1.11,2.78-2.13c0.29-0.57,0.16-1.21,0.06-1.81l-0.03-0.19c0.85-0.81,2.16-0.55,3.25-0.46
		c2.04,0.22,4.03-0.34,5.97-0.82C118.48,116.6,119.73,116.51,120.15,117.39z"/>
	<g>
		<path class="st1" d="M88.09,35.35c1.33-0.16,2.66,0.1,3.99-0.03c-0.52,0.82-1.34,1.46-1.69,2.36c0.5-0.34,0.94-0.74,1.5-1
			c0.74-0.22,1.56-0.12,2.32-0.29c0.04-0.06,0.13-0.17,0.17-0.23c0.11-0.29,0.2-0.58,0.3-0.87c0.53-0.04,1.06-0.08,1.59-0.14
			c-0.09,1.49-0.4,2.97-0.36,4.46c-0.03,1.08,1.36,1.41,2.22,1.82c-0.16,0.52-0.45,0.99-0.75,1.45c-0.35,0.48-0.31,1.07-0.39,1.61
			c-0.09,1.09-0.88,1.99-1.36,2.97c-0.48,0.85-0.9,1.88-1.98,2.26c-1.81,0.64-3.8,0.3-5.69,0.45c-0.16,0.7-0.33,1.4-0.49,2.09
			c-1.12-0.38-2.25-0.75-3.4-1.05c-1.41-0.39-2.88-0.68-4.17-1.34l-0.12-0.05c0.31,0.04,0.62,0.07,0.93,0.1
			c0.77-1.45,1.17-3.16,2.56-4.29c-0.86-0.01-1.79-0.01-2.5-0.49c-0.97-0.66-1.72-1.61-1.97-2.68c-0.23-0.95,0.13-1.98,0.92-2.64
			c0.63-0.51,1.63-0.36,2.3,0.01c1.1,0.61,1.37,1.85,2.33,2.57c0.15-0.89,0.07-1.83,0.42-2.68c0.64-0.78,1.73-1.16,2.38-1.93
			C87.78,37.12,87.97,36.22,88.09,35.35z M90.85,39.68l0.14-0.14c0.17,0.73,0.2,1.58,0.84,2.13c0.39,0.38,0.98,0.5,1.52,0.63
			c-0.03-0.08-0.08-0.23-0.1-0.31c0.36-0.11,0.88-0.25,0.9-0.67c0.08-0.83,0.03-1.68-0.19-2.5c-0.14-0.47-0.41-1.13-1.11-1
			C91.84,38,91.07,38.81,90.85,39.68z"/>
	</g>
	<path class="st1" d="M71.92,68c0.53,0.3,1.13,0.7,1.03,1.33c-0.05,1.74-0.02,3.49-0.2,5.23c-0.51-0.71-0.99-1.46-1.18-2.29
		C71.17,70.84,71.68,69.4,71.92,68z"/>
	<path class="st1" d="M92.53,69.03c0.83-0.25,1.7-0.37,2.58-0.43c0.08,0.22,0.16,0.44,0.24,0.66c0.41,1.09,1.1,2.08,1.63,3.13
		c0.72,1.38,1.52,2.73,2.3,4.09c0.94,1.66,1.82,3.35,2.78,5.01c1.29,2.22,4.16,3.56,4.82,6.09c0.31,1.15,0.73,2.54-0.24,3.55
		c-1.41,0.87-3.21,0.66-4.83,0.81c-0.18-0.26-0.35-0.52-0.51-0.79c-0.26-0.04-0.53-0.09-0.79-0.13c-0.11-0.77-0.07-1.61-0.61-2.26
		c-0.6-0.75-1.37-1.43-1.7-2.32c-0.37-0.89-0.3-1.89-0.8-2.73c-0.59-0.8-1.46-1.39-2.13-2.13c-1.32-1.39-2.58-2.83-3.86-4.25
		c-1.02-1.15-1.69-2.5-2.42-3.8c-0.37-0.71-0.8-1.4-0.99-2.17c-0.04-0.27-0.15-0.64,0.21-0.77C89.52,69.84,91.05,69.45,92.53,69.03z
		"/>
	<path class="st1" d="M61.32,114.22c1.84,1.46,3.64,2.97,5.38,4.53c-0.9,1.31-2.26,2.35-2.94,3.78c-0.88-0.13-1.81-0.15-2.59-0.56
		c-0.98-0.46-1.75-1.28-2.02-2.24c-0.32-1.02-0.18-2.09-0.2-3.14C59.95,115.99,60.66,115.1,61.32,114.22z"/>
	<path class="st1" d="M100.17,119.13c1.92-1.02,3.56-2.39,5.37-3.55c0.73,1.07,1.69,2.03,2.89,2.69c0.09,0.6,0.23,1.24-0.06,1.81
		c-0.53,1.02-1.58,1.8-2.78,2.13c-1.07,0.3-2.21,0.26-3.32,0.39C101.69,121.39,100.79,120.32,100.17,119.13z"/>
	<path class="st1" d="M114.95,123.43c2.14-1.61,4.46-3.07,6.28-4.99c-0.1,0.48-0.31,0.95-0.75,1.27c-1.96,1.59-4.05,3.05-6.14,4.51
		c-1.99,1.58-4.18,2.94-6.24,4.45c-0.85,0.56-1.6,1.25-2.56,1.67c-0.32,0.13-0.65,0.24-0.98,0.34c-0.05-0.07-0.15-0.22-0.21-0.3
		c0.73-0.21,1.47-0.45,2.06-0.9c1.39-1.01,2.87-1.92,4.21-2.98C112.02,125.42,113.58,124.52,114.95,123.43z"/>
	<path class="st1" d="M63.49,133.28c-1.31-0.16-1.99-1.31-2.57-2.24C61.84,131.72,62.64,132.53,63.49,133.28z"/>
	<path class="st2" d="M92.08,35.32c0.78-0.1,1.57-0.17,2.36-0.17c-0.02,0.34-0.03,0.68-0.06,1.02c-0.04,0.06-0.13,0.17-0.17,0.23
		c-0.76,0.17-1.57,0.07-2.32,0.29c-0.56,0.26-1.01,0.66-1.5,1C90.74,36.78,91.56,36.14,92.08,35.32z"/>
	<path class="st2" d="M81.08,37.42c2.27-0.84,4.63-1.48,7.01-2.06c-0.11,0.86-0.31,1.76-0.95,2.45c-0.65,0.78-1.74,1.15-2.38,1.93
		c-0.35,0.85-0.27,1.79-0.42,2.68c-0.96-0.73-1.23-1.97-2.33-2.57c-0.67-0.37-1.66-0.53-2.3-0.01c-0.78,0.67-1.15,1.7-0.92,2.64
		c0.25,1.07,1,2.02,1.97,2.68c0.71,0.49,1.65,0.48,2.5,0.49c-1.39,1.12-1.78,2.83-2.56,4.29c-0.31-0.03-0.62-0.06-0.93-0.1
		c-1.24-0.4-2.57-0.56-3.79-1.02c-3.15-1.22-5.81-3.9-5.91-7.05c0.02-0.13,0.06-0.4,0.08-0.53C73.82,39.99,77.38,38.56,81.08,37.42z
		"/>
	<path class="st2" d="M90.85,39.68c0.22-0.87,0.99-1.68,2-1.85c0.7-0.14,0.96,0.53,1.11,1c0.22,0.81,0.27,1.67,0.19,2.5
		c-0.02,0.41-0.53,0.55-0.9,0.67c-0.58-1.21-0.7-2.5-0.69-3.8c-0.56,0.41-1.1,0.86-1.58,1.34L90.85,39.68z"/>
	<path class="st2" d="M50,119.03c0.96,1.07,1.81,2.21,2.84,3.23c0.99,0.98,1.79,2.09,2.77,3.09c1.75,1.77,3.34,3.65,5.06,5.43
		c-0.16-0.11-0.33-0.22-0.49-0.33c-0.8-0.74-1.48-1.58-2.25-2.35c-1.34-1.61-2.87-3.08-4.24-4.67
		C52.33,122.06,50.92,120.68,50,119.03z"/>
	<g>
		<path class="st3" d="M87.81,87.29c1.99-0.2,3.99-0.36,5.99-0.22c-0.19,0.94-0.59,1.84-0.71,2.79c0.08,0.9,0.69,1.67,1.05,2.49
			c0.97,2.08,2,4.13,2.92,6.23c0.61,1.38,0.75,2.87,1.22,4.29c0.4,1.24,1.3,2.27,2.03,3.36c0.9,1.37,1.94,2.66,2.77,4.07
			c0.32,0.49,0.58,1.13,1.28,1.29c0.7,0.17,1.04,0.77,1.4,1.27c0.43,0.6,0.85,1.22,1.19,1.87c-0.48,0.28-0.96,0.56-1.41,0.86
			c-1.81,1.16-3.44,2.53-5.37,3.55c-0.56,0.3-1.14,0.56-1.71,0.83c-0.66-0.7-1.3-1.42-1.91-2.16c-0.41-0.45-0.25-1.14-0.76-1.53
			c-2.23-2.15-4.65-4.17-6.5-6.6c-0.82-1.06-1.05-2.4-1.99-3.4c-0.95-1.03-1.66-2.2-2.33-3.38c-0.98,1.35-1.75,2.81-2.79,4.13
			c-1.06,1.37-2.77,2.15-4.17,3.2c-1.56,1.05-2.67,2.49-3.99,3.75c-0.85,0.81-1.62,1.69-2.49,2.47c-0.13,0.11-0.25,0.22-0.38,0.33
			c0.08,0.28,0.17,0.55,0.26,0.83c-0.95,0.8-1.93,1.57-2.81,2.43c-0.73-0.31-1.34-0.79-1.89-1.3c-1.74-1.56-3.54-3.06-5.38-4.53
			c-0.36-0.29-0.7-0.59-1.01-0.93c0.84-0.9,1.74-1.77,2.73-2.55c0.7-0.55,1.12-1.31,1.61-2c0.95-1.36,2.06-2.64,3.41-3.7
			c0.9-0.75,1.93-1.35,2.85-2.08c0.56-0.42,0.72-1.09,0.89-1.69c0.8-3.11,2.14-6.09,3.75-8.94c0.3-0.44-0.05-0.9-0.22-1.31
			c-0.52-0.95-0.91-1.96-1.12-3.01c0.81,0.2,1.65,0.33,2.49,0.42C80.45,88.85,84.12,87.74,87.81,87.29z"/>
	</g>
</g>
<g>
</g>
<g>
</g>
<g>
</g>
<g>
</g>
<g>
</g>
<g>
</g>
<g>
</g>
<g>
</g>
<g>
</g>
<g>
</g>
<g>
</g>
<g>
</g>
<g>
</g>
<g>
</g>
<g>
</g>
</svg>
